<svg id="icon_1" data-name="icon 1" xmlns="http://www.w3.org/2000/svg" width="82.515" height="110.986" viewBox="0 0 82.515 110.986">
  <g id="Group_37" data-name="Group 37" transform="translate(-674.044 -1703.764)">
    <path id="Path_74" data-name="Path 74" d="M756.205,1781.936c-1.778-3.573-3.581-7.134-5.362-10.706a38.675,38.675,0,0,0-2.382-4.464,10.189,10.189,0,0,0-17.39,1.086c-2.311,4.638-4.523,9.325-6.764,14a2.646,2.646,0,0,0,1.315,3.827,2.611,2.611,0,0,0,3.929-1.221c1.175-2.324,2.332-4.658,3.5-6.988l.191.072c-.046.181-.086.362-.139.541-1.062,3.606-2.135,7.21-3.187,10.82-.539,1.853-.013,2.9,1.782,3.611a4.71,4.71,0,0,0,1.1.34c.9.119,1.15.6,1.141,1.483-.043,4.3-.009,8.6-.026,12.9a3.331,3.331,0,0,0,1.879,3.19,3.243,3.243,0,0,0,3.681-.365c.514-.411.781-.421,1.333,0a3.38,3.38,0,0,0,5.506-2.236,10.963,10.963,0,0,0,.123-1.719c.014-3.494,0-6.988.02-10.482.012-2.208.031-2.208,2.056-2.985,1.815-.7,2.381-1.807,1.863-3.7-.577-2.109-1.173-4.213-1.75-6.322-.483-1.765-.95-3.535-1.423-5.3,1.4,2.381,2.61,4.817,3.836,7.245.776,1.538,2.126,1.942,3.765,1.15A2.6,2.6,0,0,0,756.205,1781.936Z" fill="#4fae5e"/>
    <path id="Path_75" data-name="Path 75" d="M721.928,1788.553c-.825.8-1.633,1.626-2.447,2.441a1.127,1.127,0,0,1-1.106.464,15.175,15.175,0,0,0-3.557-.126c-1.362-.01-2.893.478-4.04,0-1.215-.505-2.057-1.9-3.077-2.886a2.054,2.054,0,0,0-3.054.095,1.927,1.927,0,0,0,.015,2.938c1.374,1.4,2.743,2.8,4.156,4.154a2.3,2.3,0,0,1,.753,1.832c-.028,2.5-.01,4.993-.009,7.489,0,2.535-.016,5.07.007,7.6a1.941,1.941,0,0,0,2.225,2.173,1.9,1.9,0,0,0,2.15-2.124c.034-1.421.033-2.843.012-4.263-.011-.7.208-1.076.984-1.064.721.011,1.052.277,1.037,1.025q-.04,2.073,0,4.148c.031,1.534.75,2.288,2.124,2.3,1.5.008,2.14-.663,2.143-2.31.008-4.954.018-9.909-.015-14.863a2.62,2.62,0,0,1,.851-2.133c1.348-1.257,2.628-2.586,3.921-3.9a1.97,1.97,0,0,0,.073-3.03A2.091,2.091,0,0,0,721.928,1788.553Z" fill="#4fae5e"/>
    <path id="Path_76" data-name="Path 76" d="M734.25,1754.435a6.438,6.438,0,0,0,12.873.065,6.57,6.57,0,0,0-6.414-6.522A6.5,6.5,0,0,0,734.25,1754.435Z" fill="#4fae5e"/>
    <path id="Path_77" data-name="Path 77" d="M709.959,1784.215a5,5,0,0,0,5.05,4.911,5.05,5.05,0,0,0,4.981-4.9,5.187,5.187,0,0,0-4.9-5.125A5.054,5.054,0,0,0,709.959,1784.215Z" fill="#4fae5e"/>
    <path id="Path_78" data-name="Path 78" d="M705.171,1784.607a2.381,2.381,0,0,0,.1-2.8q-3.63-7.068-7.219-14.159a5.853,5.853,0,0,0-2.742-2.7,13.436,13.436,0,0,0-10.3-.332,5.709,5.709,0,0,0-3.359,2.989q-3.627,7.134-7.238,14.278c-.8,1.59-.272,2.963,1.391,3.794a2.566,2.566,0,0,0,3.79-1.117c.406-.759.806-1.521,1.213-2.3a.786.786,0,0,1,1.1-.317v5.953a3.225,3.225,0,0,0,1.754,2.869c-.012,5.456,0,10.913-.021,16.37a3.393,3.393,0,0,0,1.8,3.243,3.269,3.269,0,0,0,3.784-.321c.534-.426.813-.37,1.343.017a3.375,3.375,0,0,0,5.492-2.271,11.093,11.093,0,0,0,.118-1.719q.013-7.315.006-14.631c0-.25,0-.5-.006-.75a3.225,3.225,0,0,0,1.639-2.807v-5.945a.792.792,0,0,1,1.126.313c.413.8.808,1.58,1.189,2.363a2.286,2.286,0,0,0,1.831,1.406A3.417,3.417,0,0,0,705.171,1784.607Z" fill="#4fae5e"/>
    <path id="Path_79" data-name="Path 79" d="M689.832,1747.98a6.451,6.451,0,0,0-6.374,6.41,6.4,6.4,0,0,0,12.8.045A6.442,6.442,0,0,0,689.832,1747.98Z" fill="#4fae5e"/>
  </g>
  <path id="Path_80" data-name="Path 80" d="M675.16,1740.245c.927.569,1.729.084,2.459-.545.55-.474,1.119-.927,1.692-1.375a11.678,11.678,0,0,1,15.058-.014,20.9,20.9,0,0,1,4.9,5.779c1.085,1.769,2.3,1.771,3.527.1.321-.438.55-.943.865-1.385,2.679-3.748,5.825-6.749,10.6-7.145v30.917a1.037,1.037,0,0,0,2.074,0v-30.924c4.738.354,7.966,3.247,10.631,7.018,2.622,3.711,2.89,3.712,5.387.01,2.848-4.224,6.5-7.124,11.934-7.074,3.461.032,6.111,1.73,8.551,3.9,1.084.964,2.14,1.335,3.407.42v-1.454c-.676-.278-.708-.953-.875-1.508-3.174-10.539-9.949-18.023-19.7-22.822a45.614,45.614,0,0,0-19.335-4.775V1704.8a1.037,1.037,0,1,0-2.074,0v4.565a49.791,49.791,0,0,0-6.877.637c-13.074,2.121-23.227,8.628-29.883,20.238a31.752,31.752,0,0,0-2.957,7.4C674.275,1738.631,674.15,1739.624,675.16,1740.245Z" transform="translate(-674.044 -1703.764)" fill="#196c52"/>
</svg>
