<svg version="1.2" xmlns="http://www.w3.org/2000/svg" viewBox="0 0 97 94" width="97" height="94">
	<title>first-1-svg</title>
	<style>
		.s0 { fill: #206346 } 
		.s1 { fill: #51b254 } 
	</style>
	<path id="Path_114" fill-rule="evenodd" class="s0" d="m90.5 13.2v16.7q-0.2 2.2-0.4 4.4-0.3 2.2-0.6 4.3-0.4 2.2-0.8 4.4-0.4 2.1-0.9 4.3c-3.4 13.9-9.8 26-20.9 35.4q-2.1 1.7-4.3 3.2-2.1 1.6-4.5 2.9-2.3 1.4-4.7 2.5-2.4 1.2-4.8 2.2h-1.6q-1.2-0.5-2.4-1.1-4.1-1.6-7.8-3.8-3.8-2.2-7.2-5-3.4-2.8-6.3-6-3-3.3-5.4-6.9-1.8-2.9-3.4-5.9-1.6-3-2.9-6.2-1.2-3.1-2.2-6.3-1-3.3-1.7-6.6-0.5-2.3-0.9-4.6-0.4-2.3-0.8-4.6-0.3-2.4-0.5-4.7-0.3-2.3-0.5-4.7v-14.7c0.7 0 1.5 0.2 2.2 0.2 13.9 0.3 26.7-3.3 38-11.6 1.8-1.3 3.1-1.3 4.9-0.2 12.5 7.5 25.4 13.3 40.4 12.4zm-5.3 12.5q0-3.4 0-6.8c0-1-0.4-1.5-1.5-1.5q-2.4 0.1-4.7-0.1-2.4-0.2-4.7-0.6-2.3-0.4-4.5-1.1-2.3-0.6-4.5-1.5-2.1-0.8-4.1-1.7-2.1-0.9-4.1-1.8-2-1-4-2.1-2-1.1-3.9-2.3c-0.9-0.6-1.6-1-2.7-0.2q-3.6 2.8-7.7 4.9-4.1 2.1-8.5 3.5-4.4 1.4-9 2-4.5 0.6-9.1 0.5c-1.5-0.1-2 0.7-2 2-0.2 12.5 1 24.8 5.3 36.6 5.5 14.9 15.4 25.5 30.2 31.6q0.5 0.2 1 0.3 0.5 0.1 1 0.1 0.5 0 1-0.1 0.6-0.1 1-0.3c13.8-5.8 23.8-15.4 29.6-29.2 4.4-10.3 5.9-21.1 5.9-32.2z"/>
	<g id="Group_64">
		<path id="Path_115" fill-rule="evenodd" class="s1" d="m69.6 44.7c0 8.9-5.3 16.8-13.5 20.2-8.2 3.4-17.6 1.5-23.8-4.8-6.3-6.2-8.1-15.7-4.7-23.8 3.4-8.2 11.4-13.5 20.2-13.5 2.9 0 5.7 0.6 8.4 1.7 2.6 1.1 5 2.7 7 4.8 2.1 2 3.7 4.4 4.8 7.1 1.1 2.6 1.6 5.4 1.6 8.3zm-31.6-2.8c-0.2 0-0.3 0.1-0.4 0.2q-1.8 1.8-3.5 3.5c-0.4 0.4-0.4 0.5 0 0.9q4.5 4.5 9 9c0.4 0.5 0.6 0.5 1 0q3.8-3.8 7.6-7.5 4.9-4.9 9.7-9.8c0.4-0.4 0.4-0.5 0-0.9q-1.6-1.7-3.3-3.4c-0.5-0.5-0.6-0.5-1.1 0l-13 13c-0.4 0.4-0.4 0.4-0.8 0q-2.4-2.4-4.7-4.7c-0.2-0.2-0.3-0.3-0.5-0.3z"/>
	</g>
</svg>