<svg version="1.2" xmlns="http://www.w3.org/2000/svg" viewBox="0 0 85 99" width="85" height="99">
	<title>first-svg</title>
	<style>
		.s0 { fill: #51b254 } 
		.s1 { fill: #206346 } 
	</style>
	<g id="Group_30">
		<path id="Path_65" class="s0" d="m78.2 69.6q-2.4-4.7-4.8-9.5-0.2-0.5-0.5-1-0.2-0.5-0.5-1-0.2-0.5-0.5-1-0.3-0.5-0.6-1c-0.9-1.3-2.1-2.3-3.5-3-1.4-0.6-3-0.9-4.5-0.8-1.6 0-3.1 0.5-4.4 1.4-1.3 0.8-2.4 2-3.1 3.4-2.1 4.1-4 8.3-6 12.5q-0.3 0.4-0.3 0.9-0.1 0.6 0.1 1 0.1 0.5 0.5 0.9 0.4 0.4 0.8 0.6 0.5 0.3 1 0.4 0.6 0 1.1-0.1 0.5-0.2 0.9-0.5 0.4-0.4 0.5-0.9 1.6-3.1 3.2-6.2h0.1q0 0.3-0.1 0.5-1.4 4.8-2.8 9.7c-0.5 1.6 0 2.5 1.6 3.2q0.1 0 0.2 0.1 0.1 0 0.2 0 0.2 0.1 0.3 0.1 0.1 0 0.2 0.1c0.8 0.1 1.1 0.5 1.1 1.3-0.1 3.8-0.1 7.7-0.1 11.5q0 0.4 0.1 0.9 0.1 0.4 0.3 0.8 0.3 0.3 0.6 0.6 0.3 0.3 0.7 0.5 0.4 0.2 0.8 0.3 0.5 0.1 0.9 0.1 0.4-0.1 0.8-0.2 0.4-0.2 0.8-0.5c0.4-0.4 0.7-0.4 1.2 0q0.6 0.5 1.4 0.6 0.8 0.2 1.6-0.1 0.8-0.4 1.3-1 0.5-0.7 0.6-1.5 0-0.2 0-0.4 0-0.2 0.1-0.4 0-0.1 0-0.3 0-0.2 0-0.4 0-4.7 0-9.4c0-1.9 0-1.9 1.8-2.6q0.6-0.1 1-0.5 0.4-0.3 0.7-0.8 0.2-0.5 0.2-1 0-0.5-0.2-1-0.8-2.8-1.6-5.7-0.6-2.3-1.2-4.7c1.2 2.1 2.3 4.3 3.4 6.5q0.2 0.4 0.6 0.8 0.3 0.3 0.8 0.5 0.5 0.1 1 0.1 0.5-0.1 0.9-0.4 0.5-0.2 0.9-0.5 0.4-0.4 0.6-0.9 0.1-0.5 0.1-1 0-0.5-0.3-1z"/>
		<path id="Path_66" class="s0" d="m47.7 75.5q-1.1 1.1-2.2 2.2-0.1 0.1-0.2 0.2-0.1 0.1-0.3 0.2-0.1 0-0.2 0-0.2 0.1-0.3 0-0.4 0-0.8-0.1-0.4 0-0.8 0-0.4 0-0.8 0-0.4 0-0.8 0c-1.2 0-2.6 0.4-3.6 0-1.1-0.4-1.8-1.7-2.7-2.6q-0.3-0.2-0.6-0.4-0.4-0.1-0.8-0.1-0.4 0-0.7 0.2-0.4 0.1-0.6 0.4-0.3 0.3-0.5 0.6-0.1 0.4-0.1 0.7 0 0.4 0.1 0.8 0.2 0.3 0.5 0.5 1.8 1.9 3.7 3.7 0.1 0.2 0.3 0.4 0.1 0.2 0.2 0.4 0.1 0.2 0.1 0.4 0.1 0.3 0 0.5 0 3.3 0 6.7 0 3.3 0 6.7 0 0.4 0.1 0.8 0.2 0.4 0.5 0.7 0.2 0.3 0.6 0.4 0.4 0.1 0.8 0.1 0.4 0 0.8-0.1 0.4-0.1 0.7-0.4 0.2-0.3 0.4-0.7 0.1-0.3 0-0.7 0.1-1.9 0.1-3.8c-0.1-0.7 0.1-1 0.8-1 0.7 0 1 0.3 1 0.9q-0.1 1.9 0 3.7 0 2.1 1.8 2.1c1.4 0 2-0.6 2-2.1q0-6.6-0.1-13.2 0-0.3 0.1-0.6 0-0.2 0.1-0.5 0.1-0.2 0.3-0.4 0.1-0.2 0.3-0.4c1.2-1.1 2.3-2.3 3.5-3.5q0.3-0.2 0.5-0.6 0.2-0.3 0.2-0.7 0-0.4-0.2-0.8-0.1-0.3-0.4-0.6-0.3-0.3-0.7-0.5-0.3-0.1-0.7-0.1-0.4 0-0.8 0.2-0.4 0.1-0.6 0.4z"/>
		<path id="Path_67" class="s0" d="m58.6 45.1c0.1 1.5 0.7 3 1.7 4 1.1 1.1 2.5 1.7 4 1.7 1.5 0 3-0.6 4.1-1.6 1.1-1.1 1.7-2.5 1.7-4q0-1.1-0.4-2.2-0.5-1-1.3-1.9-0.8-0.8-1.8-1.2-1.1-0.5-2.2-0.5-1.1 0-2.2 0.4-1.1 0.5-1.9 1.3-0.8 0.8-1.2 1.8-0.5 1.1-0.5 2.2z"/>
		<path id="Path_68" class="s0" d="m37 71.7q0 0.9 0.4 1.7 0.3 0.8 0.9 1.4 0.7 0.6 1.5 0.9 0.8 0.4 1.7 0.4 0.9-0.1 1.7-0.4 0.8-0.3 1.4-0.9 0.6-0.6 1-1.4 0.3-0.8 0.3-1.7 0-0.9-0.3-1.7-0.3-0.8-0.9-1.5-0.7-0.6-1.5-1-0.8-0.3-1.6-0.4-0.9 0-1.8 0.4-0.8 0.3-1.5 0.9-0.6 0.7-1 1.5-0.3 0.9-0.3 1.8z"/>
		<path id="Path_69" class="s0" d="m32.7 72q0.2-0.2 0.4-0.6 0.1-0.3 0.1-0.6 0-0.3-0.1-0.7-0.1-0.3-0.3-0.6-3.2-6.3-6.4-12.6-0.2-0.4-0.5-0.7-0.2-0.4-0.5-0.7-0.3-0.3-0.7-0.5-0.4-0.3-0.8-0.5-1-0.5-2.2-0.7-1.1-0.3-2.3-0.3-1.2-0.1-2.4 0.1-1.1 0.2-2.2 0.6-0.5 0.2-1 0.4-0.4 0.3-0.8 0.6-0.4 0.4-0.7 0.8-0.3 0.4-0.5 0.9-3.3 6.3-6.5 12.7-0.2 0.5-0.3 1 0 0.5 0.1 1 0.2 0.5 0.6 0.8 0.4 0.4 0.9 0.6 0.4 0.3 0.9 0.3 0.5 0.1 1 0 0.5-0.2 0.9-0.5 0.3-0.3 0.5-0.8 0.6-1 1.1-2.1 0.1-0.1 0.2-0.2 0.1-0.1 0.3-0.1 0.1-0.1 0.2 0 0.2 0 0.3 0.1v5.3q0 0.3 0.1 0.7 0.1 0.4 0.3 0.8 0.2 0.3 0.5 0.6 0.3 0.2 0.7 0.4 0 7.3-0.1 14.6 0 0.4 0.1 0.9 0.1 0.4 0.3 0.8 0.2 0.4 0.5 0.7 0.4 0.3 0.8 0.5 0.3 0.2 0.8 0.3 0.4 0.1 0.9 0.1 0.4-0.1 0.9-0.2 0.4-0.2 0.7-0.5c0.5-0.4 0.7-0.3 1.2 0q0.7 0.5 1.5 0.7 0.8 0.1 1.6-0.2 0.7-0.4 1.2-1 0.5-0.7 0.6-1.5 0-0.2 0.1-0.4 0-0.2 0-0.4 0-0.2 0-0.4 0-0.1 0-0.3 0-6.6 0-13.1 0-0.3 0-0.6 0.4-0.2 0.6-0.5 0.3-0.3 0.5-0.6 0.2-0.3 0.3-0.7 0.1-0.4 0.1-0.7v-5.3q0.1-0.1 0.3-0.1 0.1-0.1 0.2 0 0.2 0 0.3 0.1 0.1 0.1 0.2 0.2 0.5 1.1 1 2.1 0.1 0.3 0.3 0.5 0.2 0.2 0.4 0.4 0.2 0.1 0.4 0.2 0.3 0.2 0.6 0.2 0.4 0 0.8 0 0.4-0.1 0.8-0.2 0.4-0.2 0.7-0.5 0.3-0.2 0.5-0.6z"/>
		<path id="Path_70" class="s0" d="m19.1 39.4q-1.2 0-2.2 0.4-1 0.5-1.8 1.3-0.8 0.8-1.3 1.8-0.4 1.1-0.4 2.2c0 1.5 0.6 3 1.6 4 1.1 1.1 2.6 1.7 4.1 1.7 1.5 0 2.9-0.6 4-1.6 1.1-1.1 1.7-2.5 1.7-4.1q0-1.1-0.4-2.2-0.5-1-1.3-1.8-0.8-0.8-1.8-1.3-1.1-0.4-2.2-0.4z"/>
	</g>
	<path id="Path_71" class="s1" d="m6 32.5c0.8 0.5 1.5 0.1 2.2-0.5q0.7-0.6 1.5-1.2 1.4-1.2 3.1-1.8 1.8-0.7 3.6-0.7 1.8 0 3.6 0.7 1.7 0.6 3.1 1.8 0.7 0.5 1.3 1.1 0.6 0.6 1.1 1.3 0.6 0.6 1.1 1.3 0.5 0.7 0.9 1.4c0.9 1.6 2 1.6 3.1 0.1 0.3-0.4 0.5-0.8 0.8-1.2 2.4-3.4 5.2-6 9.4-6.4v27.6q0 0.3 0.3 0.6 0.3 0.3 0.7 0.3 0.3 0 0.6-0.3 0.3-0.3 0.3-0.6v-27.6c4.2 0.3 7.1 2.9 9.5 6.3 2.3 3.3 2.5 3.3 4.8 0 2.5-3.8 5.7-6.4 10.6-6.3 3.1 0 5.4 1.5 7.6 3.4 1 0.9 1.9 1.2 3 0.4v-1.3c-0.6-0.2-0.6-0.8-0.7-1.3-2.9-9.4-8.9-16.1-17.6-20.4q-2-1-4.1-1.7-2.1-0.8-4.3-1.3-2.1-0.6-4.4-0.9-2.2-0.3-4.4-0.3v-4.1q0-0.4-0.3-0.6-0.3-0.3-0.6-0.3-0.4 0-0.7 0.3-0.3 0.2-0.3 0.6v4.1q-0.7 0-1.5 0.1-0.8 0-1.5 0.1-0.8 0-1.6 0.1-0.7 0.1-1.5 0.3c-11.6 1.9-20.7 7.6-26.6 18q-0.4 0.8-0.8 1.6-0.4 0.8-0.7 1.6-0.4 0.8-0.6 1.7-0.3 0.8-0.6 1.7c-0.2 0.9-0.3 1.7 0.6 2.3z"/>
</svg>