<svg version="1.2" xmlns="http://www.w3.org/2000/svg" viewBox="0 0 97 95" width="97" height="95">
	<title>fourth-4-svg</title>
	<style>
		.s0 { fill: none } 
		.s1 { fill: #206346 } 
		.s2 { fill: #51b254 } 
	</style>
	<path id="Path_91" class="s0" d="m50.9 84q-2.9 0-5.9 0-3.1 0-6.1 0c-0.8 0-0.9 0.2-0.5 0.8 0.7 1.1 1.7 2 2.8 2.6 1.1 0.6 2.4 1 3.7 1 1.3 0 2.6-0.3 3.7-1 1.2-0.6 2.1-1.5 2.8-2.5 0.2-0.3 0.4-0.5 0.3-0.8-0.2-0.2-0.5-0.1-0.8-0.1z"/>
	<path id="Path_92" class="s0" d="m44.8 9.4c0.8 0 1.6 0.2 1.6-1-0.1-1.2-0.6-1.8-1.4-1.9-0.9 0-1.4 0.7-1.5 1.8-0.1 1.2 0.6 1.2 1.3 1.1z"/>
	<path id="Path_93" fill-rule="evenodd" class="s1" d="m70.5 59.4q0.5 0 1 0 0.5-0.1 1-0.1 0.5-0.1 0.9-0.2c0 2 0 3.7 0 4.7 0 0.9 0.3 1.2 1.2 1.3q0.9 0.2 1.9 0.6 0.9 0.4 1.7 0.9 0.9 0.5 1.6 1.2 0.8 0.7 1.4 1.5c0.6 0.9 1.1 2 1.4 3.1 0.3 1.1 0.3 2.2 0.1 3.4-0.1 1.1-0.6 2.2-1.2 3.2-0.6 0.9-1.3 1.8-2.3 2.4q-0.8 0.7-1.7 1.1-0.9 0.5-1.9 0.8-1 0.4-2 0.5-1.1 0.2-2.1 0.2-5.7 0-11.5 0-0.2-0.1-0.5 0-0.2 0-0.5 0.2-0.2 0.1-0.3 0.4-0.1 0.2-0.2 0.4c-1.9 5.6-5.9 9-11.7 9.8-1.6 0.3-3.3 0.2-4.9-0.1-1.6-0.4-3.1-1-4.5-1.9-1.4-0.8-2.6-1.9-3.7-3.2-1-1.3-1.8-2.8-2.3-4.3q0-0.4-0.2-0.6-0.2-0.3-0.4-0.5-0.3-0.2-0.6-0.2-0.3-0.1-0.6 0-5.7 0-11.4 0-1.1 0-2.2-0.2-1.1-0.2-2.2-0.6-1-0.4-2-1-0.9-0.5-1.7-1.3c-4.7-4.1-4-10.9 1.4-14.2q0.4-0.3 0.9-0.5 0.5-0.3 1-0.5 0.4-0.2 0.9-0.3 0.6-0.2 1.1-0.3c0.8-0.1 1-0.5 1-1.3 0-5.9 0-19.9 0-25.8q0-2.8 0.6-5.5 0.5-2.8 1.6-5.4 1.1-2.6 2.6-5 1.6-2.3 3.6-4.3 1.1-1.1 2.4-2.2 1.3-1 2.7-1.8 1.3-0.9 2.8-1.6 1.5-0.7 3.1-1.2c0.9-0.3 1.3-0.7 1.2-1.8q-0.1-0.9 0-1.7 0-0.9 0.3-1.8 0.3-0.9 0.7-1.6 0.4-0.8 1-1.5c1.1-1.1 2.4-1.9 3.9-2.3 1.5-0.4 3-0.4 4.5 0.1 1.4 0.4 2.7 1.3 3.7 2.5 1 1.2 1.6 2.6 1.7 4.1q0.1 0.3 0.1 0.7 0 0.3 0 0.6 0.1 0.3 0.1 0.6 0 0.3 0 0.6-0.1 0.3 0 0.5 0 0.3 0.2 0.5 0.1 0.2 0.4 0.3 0.2 0.1 0.4 0.2 1.3 0.4 2.6 1 1.3 0.5 2.4 1.2 1.2 0.7 2.4 1.5 1.1 0.8 2.1 1.7-0.9 0.2-1.7 0.6-0.9 0.3-1.7 0.7-0.8 0.4-1.6 0.8-0.8 0.5-1.6 1-1.6-1.1-3.5-1.8-1.8-0.8-3.8-1.2-1.9-0.5-3.9-0.5-2-0.1-4 0.3c-8.3 1.3-14 6-17.2 13.7q-0.4 1-0.7 2.1-0.3 1-0.5 2.1-0.2 1.1-0.2 2.1-0.1 1.1-0.1 2.2c0 7.6 0 23.3 0 31 0 1.8 0 1.8-1.8 1.8q-1.4 0-2.9 0-0.4 0-0.8 0.1-0.4 0-0.8 0.1-0.5 0.1-0.8 0.3-0.4 0.2-0.8 0.4c-2 1.1-2 3.2 0 4.4q0.4 0.2 0.9 0.4 0.4 0.1 0.9 0.2 0.5 0.2 0.9 0.2 0.5 0 1 0 13.1 0 26.1 0 13.1 0 26.2 0 0.6 0.1 1.2 0 0.5-0.1 1.1-0.2 0.5-0.2 1-0.5 0.5-0.2 1-0.6 0.4-0.3 0.7-0.8 0.2-0.4 0.2-1 0-0.5-0.2-1-0.3-0.4-0.7-0.7-0.3-0.2-0.5-0.4-0.3-0.2-0.6-0.3-0.3-0.1-0.6-0.2-0.3-0.1-0.6-0.2-0.6-0.1-1.2-0.1-0.6-0.1-1.2-0.1-0.6 0-1.2 0-0.6 0-1.2 0c-1.4 0-1.4 0-1.4-1.5 0-2.7 0-6.5 0-10.5q0.3 0 0.6 0.1 0.4 0 0.7 0 0.3 0 0.7 0.1 0.3 0 0.7 0 0.4 0 0.9-0.1zm-25.7-50c0.8 0.1 1.6 0.2 1.6-1-0.1-1.1-0.6-1.8-1.4-1.8-0.9 0-1.4 0.6-1.5 1.8-0.1 1.1 0.6 1.1 1.3 1zm6.9 74.7c-0.2-0.2-0.5-0.1-0.8-0.1q-2.9 0-5.9 0-3.1 0-6.1 0c-0.8 0-0.9 0.2-0.5 0.8 0.7 1.1 1.7 2 2.8 2.6 1.1 0.6 2.4 1 3.7 1 1.3 0 2.6-0.3 3.7-1 1.2-0.6 2.1-1.5 2.8-2.5 0.2-0.3 0.4-0.5 0.3-0.8z"/>
	<path id="Path_94" fill-rule="evenodd" class="s2" d="m76.5 20c2.3 1 4.4 2.4 6.2 4.1 1.7 1.8 3.1 3.9 4.1 6.2 0.9 2.3 1.4 4.7 1.4 7.2 0 7.6-4.6 14.5-11.7 17.5-7 2.9-15.2 1.3-20.6-4.1-5.4-5.4-7-13.6-4.1-20.6 2.9-7.1 9.8-11.7 17.5-11.7 2.5 0 4.9 0.5 7.2 1.4zm3.9 11.7c0-0.5-0.2-1-0.6-1.3-0.3-0.4-0.8-0.6-1.3-0.6-0.5 0-1 0.2-1.3 0.6l-7.9 7.8-7.9-7.8c-0.3-0.4-0.8-0.6-1.3-0.6-0.5 0-1 0.2-1.3 0.6-0.4 0.3-0.6 0.8-0.6 1.3 0 0.5 0.2 1 0.6 1.3l9.2 9.2q0.2 0.3 0.6 0.4 0.3 0.2 0.7 0.2 0.4 0 0.7-0.2 0.4-0.1 0.6-0.4l9.2-9.2c0.4-0.3 0.6-0.8 0.6-1.3z"/>
</svg>