<svg id="icon_4" data-name="icon 4" xmlns="http://www.w3.org/2000/svg" width="109.648" height="112.047" viewBox="0 0 109.648 112.047">
  <path id="Path_69" data-name="Path 69" d="M702.875,2411.593c-3.13,0-6.259.007-9.389-.006a11.621,11.621,0,0,1-1.847-.136,2.165,2.165,0,0,1-1.833-2.02,2.215,2.215,0,0,1,1.569-2.238,5.021,5.021,0,0,1,1.4-.189q10.209-.016,20.416,0a4.872,4.872,0,0,1,.974.092,2.284,2.284,0,0,1,1.947,2.28,2.23,2.23,0,0,1-2.1,2.122,26.966,26.966,0,0,1-3.815.094C707.752,2411.6,705.313,2411.593,702.875,2411.593Z" transform="translate(-668.695 -2324.82)" fill="#196c52"/>
  <path id="Path_70" data-name="Path 70" d="M723.688,2411.643c-.844-.06-1.646-.07-2.433-.183a2.211,2.211,0,0,1-1.9-2.076,2.177,2.177,0,0,1,1.633-2.182,13.636,13.636,0,0,1,5.507.012,2.174,2.174,0,0,1-.252,4.236C725.388,2411.576,724.513,2411.585,723.688,2411.643Z" transform="translate(-668.695 -2324.82)" fill="#196c52"/>
  <path id="Path_71" data-name="Path 71" d="M759.818,2364.945c-.042,6.114.468,4.512-3.426,8.514-.915.939-1.84,1.87-2.786,2.778a2.214,2.214,0,0,1-3.3.173,2.284,2.284,0,0,1,.148-3.311c1.32-1.358,2.654-2.7,4.022-4.014a2.277,2.277,0,0,0,.753-1.834c-.036-1.675-.019-3.352-.005-5.028a8.33,8.33,0,0,1,.117-1.411,2.192,2.192,0,0,1,4.349-.048A30.329,30.329,0,0,1,759.818,2364.945Z" transform="translate(-668.695 -2324.82)" fill="#4fae5e"/>
  <path id="Path_72" data-name="Path 72" d="M761.725,2407.144c-1.908-.24-1.908-.24-1.908-2.132q0-6.009,0-12.018c-.755.073-1.518.116-2.291.116s-1.551-.043-2.312-.117q0,7.413,0,14.826a12.146,12.146,0,0,0,.045,1.31c.179,1.61.819,2.277,2.423,2.409,1.05.086,2.112.029,3.166.079a5.061,5.061,0,0,1,4.99,4.822,5.231,5.231,0,0,1-4.168,5.292,8.517,8.517,0,0,1-1.739.093q-20.219.006-40.435,0-20.327,0-40.652.01a5.8,5.8,0,0,1-3.6-1.039,5.1,5.1,0,0,1-1.853-5.556,5.011,5.011,0,0,1,4.464-3.6c1.234-.079,2.479-.034,3.708-.148a2.225,2.225,0,0,0,2.186-2.283c.033-.4.016-.8.016-1.2,0-10.855-.151-21.713.039-32.565.256-14.568,7.129-25.213,19.931-32a32.979,32.979,0,0,1,17.542-3.66,35.29,35.29,0,0,1,22.7,9.754,23.958,23.958,0,0,1,4.134-2.294,39.817,39.817,0,0,0-19.09-10.85c-.674-.167-.912-.473-.887-1.118a11.117,11.117,0,0,0-.347-3.246c-1.015-3.851-3.6-6.117-7.337-7.21h-3.935a11.355,11.355,0,0,0-4.508,2.35,9.956,9.956,0,0,0-3.2,8.367,1.288,1.288,0,0,1-1.1,1.545,33.078,33.078,0,0,0-7.817,3.335c-13.076,7.8-20.2,19.25-20.569,34.548-.239,9.866-.046,19.743-.047,29.614,0,2.353-.007,2.3-2.323,2.606a9.45,9.45,0,0,0-8.249,9.732,9.549,9.549,0,0,0,9.9,9.407c9,.007,17.995.021,26.992-.022a1.681,1.681,0,0,1,1.939,1.354,13.811,13.811,0,0,0,26.078-.094,1.54,1.54,0,0,1,1.768-1.258c8.306.04,16.611.017,24.916.029a11.912,11.912,0,0,0,2.6-.265,9.622,9.622,0,0,0,7.281-10.884A9.509,9.509,0,0,0,761.725,2407.144ZM718.4,2329.236c2.541-.166,5.2,1.881,5.247,5.507.007.607-.3.755-.831.687a30.694,30.694,0,0,0-8.485.216c-.552.082-.973.061-1.04-.708A5.141,5.141,0,0,1,718.4,2329.236Zm10.5,98a9.368,9.368,0,0,1-16.677,0c-.4-.723-.221-.933.585-.923,2.621.033,5.244.012,7.866.012,2.549,0,5.1.022,7.647-.012C729.13,2426.3,729.287,2426.525,728.893,2427.239Z" transform="translate(-668.695 -2324.82)" fill="#196c52"/>
  <path id="Path_73" data-name="Path 73" d="M760.235,2389.959a3.823,3.823,0,0,1,1.245-.357,20.788,20.788,0,1,0-10.288-40.205,1.344,1.344,0,0,1-.552.046,20.885,20.885,0,0,0-4.821,2.392,1.333,1.333,0,0,1-.485.533,19.991,19.991,0,0,0-7.795,11.027,20.771,20.771,0,0,0,15.974,26.19,4.187,4.187,0,0,1,1.333.378,18.99,18.99,0,0,0,5.389,0Zm-19.009-20.837a16.273,16.273,0,1,1,32.546.04,16.273,16.273,0,1,1-32.546-.04Z" transform="translate(-668.695 -2324.82)" fill="#4fae5e"/>
</svg>
