<svg id="logo" xmlns="http://www.w3.org/2000/svg" width="260.89" height="59.867" viewBox="0 0 260.89 59.867">
  <path id="Path_38" data-name="Path 38" d="M1138.6,113.219a10.85,10.85,0,0,1-3.295-.533,8,8,0,0,1-2.684-1.476,6.955,6.955,0,0,1-1.808-2.376,7.436,7.436,0,0,1-.665-3.21V90.633H1127.6a1.405,1.405,0,0,1-.965-.287,1.211,1.211,0,0,1-.322-.95V86.214a1.11,1.11,0,0,1,.322-.906,1.487,1.487,0,0,1,.965-.266h2.552q0-1.174.01-2.34t.011-2.341a.9.9,0,0,1,.278-.7,2.46,2.46,0,0,1,.854-.456l.909-.321q.532-.189,1.1-.366c.377-.118.742-.218,1.1-.3a4.193,4.193,0,0,1,.887-.122.941.941,0,0,1,.9.378,2.046,2.046,0,0,1,.21,1q0,1.4-.01,2.784t-.012,2.784h3.2a1.234,1.234,0,0,1,.889.3,1.259,1.259,0,0,1,.309.939v3.028a1.4,1.4,0,0,1-.309,1.016,1.209,1.209,0,0,1-.889.309h-3.2v4.21q0,.768.012,1.433t.01,1.444v4.221a.388.388,0,0,1-.01.089.342.342,0,0,0-.012.088v2.911a3.134,3.134,0,0,0,.577,2.111,2.389,2.389,0,0,0,1.864.644.884.884,0,0,1,.732.332,1.241,1.241,0,0,1,.267.8V112a1.116,1.116,0,0,1-1.221,1.22" transform="translate(-1126.31 -53.818)" fill="#fff"/>
  <path id="Path_39" data-name="Path 39" d="M1168.044,112.92a4.5,4.5,0,0,1-.533.067c-.192.007-.362.01-.51.01h-2.24a1.361,1.361,0,0,1-1.059-.442,2.052,2.052,0,0,1-.317-.911l-.244-2.019a7.9,7.9,0,0,1-2.951,2.607,9.922,9.922,0,0,1-2.3.832,12.674,12.674,0,0,1-2.94.311,10.891,10.891,0,0,1-4.659-.943,9.692,9.692,0,0,1-3.384-2.574,11.284,11.284,0,0,1-2.074-3.849,15.573,15.573,0,0,1-.71-4.77V86.44a1.728,1.728,0,0,1,.378-1.209,1.4,1.4,0,0,1,1.086-.41h3.372a1.6,1.6,0,0,1,1.188.332,1.778,1.778,0,0,1,.3,1.176v14.8a7.347,7.347,0,0,0,.366,2.3,6.1,6.1,0,0,0,1.1,2.008,5.37,5.37,0,0,0,1.83,1.42,5.812,5.812,0,0,0,2.563.533,6.967,6.967,0,0,0,2.129-.356,6.22,6.22,0,0,0,2.02-1.087,6.022,6.022,0,0,0,1.508-1.83,5.272,5.272,0,0,0,.6-2.563v-14.4a7.418,7.418,0,0,1,.045-.81,2.664,2.664,0,0,1,.188-.754,1.414,1.414,0,0,1,.4-.556,1.065,1.065,0,0,1,.7-.21h3.661a1.442,1.442,0,0,1,1.076.354,1.38,1.38,0,0,1,.344,1v25.515a1.262,1.262,0,0,1-.932,1.231" transform="translate(-1126.31 -53.818)" fill="#fff"/>
  <path id="Path_40" data-name="Path 40" d="M1190.075,86.31a1.119,1.119,0,0,0-.746-1.055,13.185,13.185,0,0,0-1.791-.468,12.665,12.665,0,0,0-2-.144,7.309,7.309,0,0,0-2.218.311,7.126,7.126,0,0,0-1.753.821,7.529,7.529,0,0,0-1.386,1.165,13.124,13.124,0,0,0-1.1,1.342c-.06-.311-.112-.654-.156-1.032a5.515,5.515,0,0,0-.223-1.054,2.276,2.276,0,0,0-.445-.82,1.057,1.057,0,0,0-.847-.333h-2.826a1.52,1.52,0,0,0-.947.333,1.149,1.149,0,0,0-.434.975v25.537q0,1.332,1.381,1.331h3.651q1.378,0,1.38-1.331V97.038a7.819,7.819,0,0,1,.617-3.233,5.576,5.576,0,0,1,4.51-3.323,7.08,7.08,0,0,1,3.627.522c.6.192,1.6.476,1.705-.737V86.31Z" transform="translate(-1126.31 -53.818)" fill="#fff"/>
  <path id="Path_41" data-name="Path 41" d="M1204.553,113.219a10.844,10.844,0,0,1-3.294-.533,8,8,0,0,1-2.685-1.476,6.966,6.966,0,0,1-1.808-2.376,7.436,7.436,0,0,1-.665-3.21V90.633h-2.552a1.405,1.405,0,0,1-.965-.287,1.215,1.215,0,0,1-.322-.95V86.214a1.113,1.113,0,0,1,.322-.906,1.487,1.487,0,0,1,.965-.266h2.552q0-1.174.01-2.34t.012-2.341a.9.9,0,0,1,.277-.7,2.446,2.446,0,0,1,.855-.456l.909-.321q.533-.189,1.1-.366t1.1-.3a4.21,4.21,0,0,1,.887-.122.94.94,0,0,1,.9.378,2.035,2.035,0,0,1,.21,1q0,1.4-.01,2.784t-.011,2.784h3.194a1.229,1.229,0,0,1,.888.3,1.251,1.251,0,0,1,.31.939v3.028a1.394,1.394,0,0,1-.31,1.016,1.2,1.2,0,0,1-.888.309h-3.194v4.21q0,.768.011,1.433t.01,1.444v4.221a.381.381,0,0,1-.01.089.4.4,0,0,0-.011.088v2.911a3.135,3.135,0,0,0,.576,2.111,2.39,2.39,0,0,0,1.865.644.883.883,0,0,1,.731.332,1.24,1.24,0,0,1,.267.8V112a1.116,1.116,0,0,1-1.221,1.22" transform="translate(-1126.31 -53.818)" fill="#fff"/>
  <path id="Path_42" data-name="Path 42" d="M1210.341,78.01a1.449,1.449,0,0,1,.311-.955,1.166,1.166,0,0,1,.955-.377h3.882a1.184,1.184,0,0,1,.832.377,1.279,1.279,0,0,1,.388.955v33.878a1.279,1.279,0,0,1-.367,1,1.407,1.407,0,0,1-.987.332h-3.7a1.305,1.305,0,0,1-1.01-.332,1.453,1.453,0,0,1-.3-1Z" transform="translate(-1126.31 -53.818)" fill="#fff"/>
  <path id="Path_43" data-name="Path 43" d="M1243.929,110.113a15.86,15.86,0,0,1-4.271,2.619,13.272,13.272,0,0,1-5.092.953,14.477,14.477,0,0,1-5.679-1.131,14.878,14.878,0,0,1-7.909-7.732,13.808,13.808,0,0,1-1.188-5.713,14.887,14.887,0,0,1,1.876-7.266,14.358,14.358,0,0,1,2.185-2.951,13.821,13.821,0,0,1,6.311-3.771,14.38,14.38,0,0,1,3.917-.522,13.648,13.648,0,0,1,3.327.41,14.62,14.62,0,0,1,5.881,3,13.309,13.309,0,0,1,2.262,2.428,13.168,13.168,0,0,1,1.952,4.017,17.132,17.132,0,0,1,.622,4.77,8.668,8.668,0,0,1-.056,1.076,1.327,1.327,0,0,1-.278.7,1.273,1.273,0,0,1-.665.389,4.941,4.941,0,0,1-1.242.122H1226.2a7.516,7.516,0,0,0,1.1,2.829,8.543,8.543,0,0,0,1.92,2.086,8.146,8.146,0,0,0,2.418,1.287,8.339,8.339,0,0,0,2.617.432,9.034,9.034,0,0,0,1.92-.2,10.01,10.01,0,0,0,1.719-.532,9.5,9.5,0,0,0,1.476-.766,8.645,8.645,0,0,0,1.187-.9.02.02,0,0,1,.022-.022,3.211,3.211,0,0,1,.511-.388.907.907,0,0,1,.964-.011,1.63,1.63,0,0,1,.5.443q.6.732,1.02,1.221t.688.821a3.471,3.471,0,0,1,.389.576,1.089,1.089,0,0,1,.121.489,1.663,1.663,0,0,1-.843,1.242m-9.85-20.012a7.058,7.058,0,0,0-2.552.477,8.6,8.6,0,0,0-2.274,1.3,8.906,8.906,0,0,0-1.8,1.93,7.911,7.911,0,0,0-1.12,2.4h15.709a8.53,8.53,0,0,0-1.076-2.473,7.884,7.884,0,0,0-1.743-1.93,7.646,7.646,0,0,0-2.329-1.254,8.713,8.713,0,0,0-2.817-.444" transform="translate(-1126.31 -53.818)" fill="#fff"/>
  <path id="Path_44" data-name="Path 44" d="M1252.216,85.32a3.183,3.183,0,0,1,1.408-.277h2.241a1.1,1.1,0,0,1,.954.423,2.433,2.433,0,0,1,.421.936l.246,2.138a11.154,11.154,0,0,1,1.175-1.458,7.022,7.022,0,0,1,1.586-1.236,8.623,8.623,0,0,1,2.152-.858,11.407,11.407,0,0,1,2.874-.323,12.218,12.218,0,0,1,2.817.3,8.5,8.5,0,0,1,2.286.89,8.35,8.35,0,0,1,1.841,1.448,11.031,11.031,0,0,1,1.486,1.971,7.106,7.106,0,0,1,1.443-1.915,8.962,8.962,0,0,1,2.1-1.481,11.334,11.334,0,0,1,2.606-.946,12.884,12.884,0,0,1,2.951-.334,10.522,10.522,0,0,1,4.605.954,9.4,9.4,0,0,1,3.316,2.618,11.493,11.493,0,0,1,2.007,3.883,16.164,16.164,0,0,1,.678,4.748v14.8a1.728,1.728,0,0,1-.378,1.209,1.4,1.4,0,0,1-1.087.41h-3.372a1.6,1.6,0,0,1-1.188-.332,1.773,1.773,0,0,1-.3-1.175V96.818a7.889,7.889,0,0,0-.332-2.283,5.6,5.6,0,0,0-1.033-1.962,5.188,5.188,0,0,0-1.752-1.374,5.618,5.618,0,0,0-2.518-.521,5.856,5.856,0,0,0-2.263.432,5.091,5.091,0,0,0-1.8,1.241A5.894,5.894,0,0,0,1276.2,94.3a7.1,7.1,0,0,0-.432,2.538v14.784q0,1.6-1.443,1.6h-3.393a1.549,1.549,0,0,1-1.177-.332,1.82,1.82,0,0,1-.289-1.175V96.84a7.934,7.934,0,0,0-.322-2.25,5.76,5.76,0,0,0-1-1.962,5.028,5.028,0,0,0-1.742-1.4,5.6,5.6,0,0,0-2.529-.532,5.7,5.7,0,0,0-2.041.388,6.041,6.041,0,0,0-1.853,1.119,5.841,5.841,0,0,0-1.364,1.8,5.526,5.526,0,0,0-.554,2.416v15.493a1.253,1.253,0,0,1-.378.942,1.316,1.316,0,0,1-.954.365h-3.66a1.469,1.469,0,0,1-1.076-.343,1.335,1.335,0,0,1-.344-.988V86.351a1.041,1.041,0,0,1,.566-1.031" transform="translate(-1126.31 -53.818)" fill="#fff"/>
  <path id="Path_45" data-name="Path 45" d="M1297.419,86.4a1.43,1.43,0,0,1,.334-.965,1.212,1.212,0,0,1,.976-.388h3.683a1.368,1.368,0,0,1,.5.1,1.4,1.4,0,0,1,.455.289,1.759,1.759,0,0,1,.333.432,1.1,1.1,0,0,1,.133.533v25.492q0,1.332-1.4,1.331h-3.683a1.177,1.177,0,0,1-1.332-1.331Z" transform="translate(-1126.31 -53.818)" fill="#fff"/>
  <path id="Path_46" data-name="Path 46" d="M1308.668,85.686a1.226,1.226,0,0,1,.51-.444.76.76,0,0,1,.533-.188c.236-.007.457-.012.665-.012h2.241a1.106,1.106,0,0,1,.954.422,2.428,2.428,0,0,1,.422.932l.243,2.351a9.961,9.961,0,0,1,1.254-1.486,8.308,8.308,0,0,1,1.765-1.308,10.04,10.04,0,0,1,2.329-.933,11.307,11.307,0,0,1,2.95-.354,11.006,11.006,0,0,1,4.66.942,9.914,9.914,0,0,1,3.438,2.585,11.267,11.267,0,0,1,2.12,3.861,15.361,15.361,0,0,1,.721,4.77v14.8a1.688,1.688,0,0,1-.378,1.2,1.422,1.422,0,0,1-1.087.4h-3.372a1.584,1.584,0,0,1-1.186-.333,1.759,1.759,0,0,1-.3-1.175V96.935a6.8,6.8,0,0,0-.4-2.3,6.276,6.276,0,0,0-1.165-2.007,5.625,5.625,0,0,0-1.9-1.421,6.208,6.208,0,0,0-4.737-.122,6.937,6.937,0,0,0-2.008,1.165,6.4,6.4,0,0,0-1.509,1.831,5.079,5.079,0,0,0-.62,2.429V110.89a7.96,7.96,0,0,1-.045.843,2.575,2.575,0,0,1-.188.754,1.3,1.3,0,0,1-.411.533,1.115,1.115,0,0,1-.687.2h-3.662a1.473,1.473,0,0,1-1.076-.343,1.337,1.337,0,0,1-.344-.988V86.352a1.133,1.133,0,0,1,.267-.666" transform="translate(-1126.31 -53.818)" fill="#fff"/>
  <path id="Path_47" data-name="Path 47" d="M1347.058,113.219a10.839,10.839,0,0,1-3.294-.533,7.992,7.992,0,0,1-2.685-1.476,6.954,6.954,0,0,1-1.808-2.376,7.436,7.436,0,0,1-.665-3.21V90.633h-2.552a1.407,1.407,0,0,1-.965-.287,1.215,1.215,0,0,1-.322-.95V86.214a1.113,1.113,0,0,1,.322-.906,1.489,1.489,0,0,1,.965-.266h2.552q0-1.174.01-2.34t.011-2.341a.9.9,0,0,1,.278-.7,2.437,2.437,0,0,1,.855-.456l.909-.321q.533-.189,1.1-.366t1.1-.3a4.2,4.2,0,0,1,.887-.122.937.937,0,0,1,.9.378,2.024,2.024,0,0,1,.211,1q0,1.4-.01,2.784t-.011,2.784h3.194a1.229,1.229,0,0,1,.888.3,1.251,1.251,0,0,1,.31.939v3.028a1.394,1.394,0,0,1-.31,1.016,1.2,1.2,0,0,1-.888.309h-3.194v4.21q0,.768.011,1.433t.01,1.444v4.221a.381.381,0,0,1-.01.089.345.345,0,0,0-.011.088v2.911a3.135,3.135,0,0,0,.576,2.111,2.389,2.389,0,0,0,1.864.644.884.884,0,0,1,.732.332,1.241,1.241,0,0,1,.267.8V112a1.117,1.117,0,0,1-1.221,1.22" transform="translate(-1126.31 -53.818)" fill="#fff"/>
  <path id="Path_48" data-name="Path 48" d="M1300.626,74.07c-5.063,0-5.072,7.869,0,7.869s5.072-7.869,0-7.869" transform="translate(-1126.31 -53.818)" fill="#fff"/>
  <path id="Path_49" data-name="Path 49" d="M1364.8,66.72v17.3a11.265,11.265,0,0,0,11.265-11.177V66.72Z" transform="translate(-1126.31 -53.818)" fill="#fff"/>
  <path id="Path_50" data-name="Path 50" d="M1387.2,55.588a11.132,11.132,0,0,0-11.133,11.132H1387.2V55.588" transform="translate(-1126.31 -53.818)" fill="#fff"/>
  <path id="Path_51" data-name="Path 51" d="M1376.068,53.818v12.9h-25.78a12.886,12.886,0,0,1,12.887-12.89v-.011Z" transform="translate(-1126.31 -53.818)" fill="#fff"/>
</svg>
