<svg version="1.2" xmlns="http://www.w3.org/2000/svg" viewBox="0 0 40 42" width="40" height="42">
	<title>fourth-svg</title>
	<style>
		.s0 { fill: #51b254 } 
		.s1 { fill: #206346 } 
	</style>
	<path id="Path_81" class="s0" d="m18.9 32.8q-1.1-1.6-2.2-3.3c-0.5-0.7-0.4-1.4 0.2-1.9 0.7-0.4 1.5-0.3 2 0.4q1.1 1.6 2.2 3.3c0.2 0.2 0.3 0.4 0.6 0q0.1-0.1 0.3-0.2 0.2-0.2 0.4-0.2 0.1-0.1 0.3-0.1 0.2 0 0.4 0.1c0.2 0.1 0.3 0 0.5-0.1q0.1-0.3 0.3-0.5 0.1-0.1 0.4-0.2 0.2-0.1 0.5-0.1 0.2 0 0.4 0.1c0.3 0 0.4 0.1 0.5-0.1 0.4-0.9 1.6-1.2 2.4 0q0.8 1.1 1.6 2.3 0.2 0.3 0.4 0.5 0.2 0.2 0.3 0.5 0.2 0.3 0.3 0.5 0.2 0.2 0.4 0.5 0.3 0.6 0.4 1.3 0.1 0.7 0 1.4-0.2 0.6-0.5 1.2-0.4 0.6-0.9 1.1-0.3 0.2-0.6 0.4-0.3 0.2-0.6 0.4-0.3 0.2-0.6 0.4-0.3 0.2-0.6 0.3-0.4 0.2-0.7 0.3-0.4 0-0.8 0-0.4 0-0.7 0-0.4-0.1-0.7-0.3-3.4-1.3-6.8-2.7-0.3 0-0.5-0.2-0.2-0.2-0.3-0.4-0.1-0.3-0.1-0.6 0-0.2 0.1-0.5 0.1-0.2 0.3-0.5 0.1-0.2 0.4-0.2 0.3-0.1 0.5-0.1 0.3 0 0.6 0.1c0.6 0.2 1.2 0.5 1.8 0.7 0.2 0.1 0.4 0.3 0.6 0.1 0.1-0.1-0.1-0.3-0.2-0.5q-1.2-1.6-2.3-3.2z"/>
	<path id="Path_82" class="s0" d="m14.9 24.6q0.6-0.3 1.3-0.6 0.7-0.2 1.4-0.2 0.8 0 1.5 0.2 0.7 0.2 1.3 0.5 0.6 0.5 1.1 1 0.4 0.6 0.7 1.2 0.3 0.7 0.4 1.4 0.1 0.8 0 1.5c-0.1 0.6-0.5 0.7-1 0.9-0.2 0.1-0.3-0.2-0.3-0.4q0 0 0-0.1 0-0.1 0-0.1 0-0.1 0.1-0.2 0 0 0-0.1c0.2-0.8 0.1-1.6-0.2-2.3-0.3-0.7-0.8-1.4-1.5-1.8-0.7-0.4-1.5-0.6-2.3-0.5-0.8 0-1.6 0.3-2.2 0.9q-0.4 0.3-0.8 0.8-0.2 0.5-0.4 1.1-0.1 0.5-0.1 1.1 0 0.5 0.2 1.1 0.2 0.5 0.5 0.9 0.3 0.5 0.7 0.8 0.5 0.3 0.9 0.5 0.6 0.2 1.1 0.2c0.2 0.1 0.5 0 0.6 0.2 0.3 0.3 0.6 0.5 0.5 0.8-0.1 0.3-0.5 0.2-0.8 0.2-1.1 0-2.1-0.4-2.9-1-0.9-0.6-1.5-1.5-1.8-2.5-0.3-1-0.2-2.1 0.1-3 0.4-1 1.1-1.9 1.9-2.5z"/>
	<path id="Path_83" class="s1" d="m8.5 32.5q-0.2 0-0.4-0.1-0.1-0.1-0.3-0.2-0.1-0.2-0.2-0.4-0.1-0.2-0.1-0.3v-6.6c0-1.1 0.3-2.2 0.7-3.3 0.4-1 1.1-2 1.9-2.8 0.8-0.8 1.8-1.4 2.8-1.9 1.1-0.4 2.2-0.6 3.3-0.6q0.1 0 0.2 0 0.1 0 0.2 0.1 0.1 0 0.2 0.1 0.1 0 0.1 0.1l2.7 2.5 2.1-2.4q0.1-0.1 0.2-0.2 0.1-0.1 0.2-0.1 0.1-0.1 0.2-0.1 0.1 0 0.2 0c1.1 0 2.3 0.2 3.3 0.6q1.6 0.7 2.9 1.9 1.1 1.3 1.8 2.8c0.5 1.1 0.7 2.2 0.7 3.3v3.1c0 0.2-0.1 0.5-0.3 0.7-0.2 0.2-0.5 0.3-0.7 0.3-0.3 0-0.6-0.1-0.7-0.3-0.2-0.2-0.3-0.5-0.3-0.7v-3.1c0-0.8-0.2-1.6-0.5-2.4-0.3-0.8-0.7-1.5-1.3-2.1-0.6-0.6-1.3-1.1-2-1.5-0.8-0.3-1.6-0.6-2.5-0.6l-2.5 3q-0.1 0.1-0.3 0.2-0.2 0.1-0.4 0.1-0.2 0-0.4 0-0.2-0.1-0.4-0.3l-3.1-3c-0.8 0-1.6 0.3-2.4 0.6-0.8 0.4-1.4 0.9-2.1 1.5-0.5 0.6-1 1.3-1.3 2.1-0.3 0.7-0.4 1.6-0.4 2.4v6.6q0 0.1-0.1 0.3-0.1 0.2-0.3 0.4-0.1 0.1-0.3 0.2-0.1 0.1-0.4 0.1z"/>
	<path id="Path_84" fill-rule="evenodd" class="s1" d="m19.3 15.5c-3 0-5.8-1.8-7-4.6-1.1-2.8-0.5-6.1 1.7-8.2 2.2-2.2 5.4-2.8 8.3-1.7 2.8 1.2 4.7 3.9 4.7 7 0 1-0.2 1.9-0.6 2.9-0.4 0.9-1 1.7-1.7 2.4-0.7 0.7-1.5 1.3-2.4 1.6-0.9 0.4-1.9 0.6-3 0.6zm0-13c-2.2 0-4.2 1.3-5.1 3.4-0.8 2-0.4 4.4 1.2 6 1.6 1.6 4 2.1 6.1 1.2 2.1-0.8 3.4-2.9 3.4-5.1 0-0.7-0.1-1.5-0.4-2.1-0.3-0.7-0.7-1.3-1.2-1.8-0.5-0.6-1.1-0.9-1.8-1.2q-1-0.4-2.2-0.4z"/>
</svg>