<svg version="1.2" xmlns="http://www.w3.org/2000/svg" viewBox="0 0 40 47" width="40" height="47">
	<title>first-svg</title>
	<style>
		.s0 { fill: #51b254 } 
		.s1 { fill: #206346 } 
	</style>
	<g id="Group_30">
		<path id="Path_65" class="s0" d="m36.8 33q-1.1-2.2-2.3-4.5-0.1-0.2-0.2-0.4-0.1-0.3-0.2-0.5-0.1-0.3-0.3-0.5-0.1-0.2-0.2-0.5-0.7-0.9-1.7-1.4c-0.7-0.3-1.4-0.4-2.1-0.4-0.8 0-1.5 0.3-2.1 0.7-0.6 0.4-1.1 0.9-1.4 1.6-1 2-1.9 3.9-2.9 5.9q-0.1 0.2-0.1 0.5-0.1 0.3 0 0.4 0.1 0.3 0.3 0.5 0.2 0.2 0.4 0.3 0.2 0.1 0.4 0.1 0.3 0 0.5 0 0.3-0.1 0.5-0.2 0.2-0.2 0.2-0.5 0.8-1.4 1.5-2.9h0.1q0 0.1-0.1 0.2-0.7 2.3-1.3 4.6c-0.2 0.8 0 1.2 0.7 1.6q0.1 0 0.1 0 0.1 0 0.1 0 0.1 0 0.2 0 0 0 0.1 0.1c0.3 0 0.5 0.2 0.5 0.6-0.1 1.8-0.1 3.7-0.1 5.5q0 0.2 0.1 0.4 0 0.2 0.1 0.4 0.2 0.1 0.3 0.3 0.1 0.1 0.3 0.2 0.2 0.1 0.4 0.1 0.2 0.1 0.4 0.1 0.2-0.1 0.4-0.1 0.2-0.1 0.4-0.2c0.2-0.2 0.3-0.2 0.6 0q0.2 0.2 0.6 0.2 0.4 0.1 0.8 0 0.3-0.2 0.6-0.5 0.2-0.3 0.3-0.7 0-0.1 0-0.2 0-0.1 0-0.2 0 0 0-0.1 0-0.1 0-0.2 0-2.2 0-4.5c0-0.9 0-0.9 0.9-1.2q0.2 0 0.4-0.2 0.2-0.2 0.4-0.4 0-0.3 0-0.5 0-0.2 0-0.5-0.4-1.3-0.8-2.7-0.3-1.1-0.6-2.2c0.6 1 1.1 2 1.6 3.1q0.1 0.2 0.3 0.4 0.2 0.1 0.4 0.2 0.2 0 0.5 0 0.2 0 0.4-0.1 0.2-0.1 0.4-0.3 0.2-0.2 0.3-0.4 0-0.2 0-0.5 0-0.2-0.1-0.5z"/>
		<path id="Path_66" class="s0" d="m22.4 35.8q-0.5 0.6-1 1.1 0 0-0.1 0.1 0 0-0.1 0.1-0.1 0-0.1 0-0.1 0-0.2 0-0.1 0-0.3-0.1-0.2 0-0.4 0-0.2 0-0.4 0-0.2 0-0.4 0c-0.5 0-1.2 0.2-1.7 0-0.5-0.2-0.8-0.8-1.2-1.2q-0.2-0.1-0.3-0.2-0.2 0-0.4 0-0.2 0-0.3 0.1-0.2 0-0.3 0.1-0.1 0.2-0.2 0.3-0.1 0.2-0.1 0.4 0 0.2 0.1 0.3 0.1 0.2 0.2 0.3 0.8 0.9 1.7 1.7 0.1 0.1 0.2 0.2 0 0.1 0.1 0.2 0 0.1 0 0.2 0.1 0.1 0 0.2 0 1.6 0 3.2 0 1.6 0 3.2 0 0.2 0.1 0.4 0.1 0.2 0.2 0.3 0.1 0.2 0.3 0.2 0.2 0.1 0.4 0.1 0.2 0 0.3-0.1 0.2 0 0.4-0.2 0.1-0.1 0.2-0.3 0-0.2 0-0.3 0-1 0-1.9c0-0.3 0.1-0.4 0.4-0.4q0.5 0 0.5 0.4-0.1 0.9 0 1.8 0 1 0.8 1c0.7 0 0.9-0.3 0.9-1q0-3.2 0-6.3 0-0.2 0-0.3 0-0.1 0.1-0.2 0-0.1 0.1-0.2 0.1-0.1 0.2-0.2c0.5-0.5 1.1-1.1 1.6-1.7q0.2-0.1 0.3-0.3 0-0.1 0-0.3 0-0.2 0-0.4-0.1-0.1-0.2-0.3-0.2-0.1-0.4-0.2-0.1 0-0.3 0-0.2 0-0.4 0.1-0.2 0-0.3 0.1z"/>
		<path id="Path_67" class="s0" d="m27.6 21.4c0 0.7 0.3 1.4 0.8 1.9 0.5 0.5 1.2 0.8 1.9 0.8 0.7 0 1.4-0.3 1.9-0.7 0.5-0.6 0.8-1.2 0.8-1.9q0-0.6-0.2-1.1-0.2-0.5-0.6-0.9-0.4-0.4-0.9-0.6-0.5-0.2-1-0.2-0.5 0-1 0.2-0.5 0.2-0.9 0.6-0.4 0.4-0.6 0.9-0.2 0.5-0.2 1z"/>
		<path id="Path_68" class="s0" d="m17.4 34q0 0.5 0.2 0.8 0.1 0.4 0.4 0.7 0.4 0.3 0.7 0.4 0.4 0.2 0.8 0.2 0.5 0 0.8-0.2 0.4-0.1 0.7-0.4 0.3-0.3 0.5-0.7 0.1-0.3 0.1-0.8 0-0.4-0.1-0.8-0.2-0.3-0.5-0.7-0.3-0.3-0.7-0.5-0.3-0.1-0.7-0.1-0.4 0-0.9 0.1-0.3 0.2-0.7 0.5-0.3 0.3-0.4 0.7-0.2 0.4-0.2 0.8z"/>
		<path id="Path_69" class="s0" d="m15.4 34.2q0.1-0.1 0.2-0.3 0-0.1 0-0.3 0-0.1 0-0.3-0.1-0.2-0.2-0.3-1.5-3-3-6-0.1-0.2-0.2-0.3-0.1-0.2-0.2-0.4-0.2-0.1-0.4-0.2-0.2-0.1-0.4-0.2-0.4-0.3-1-0.4-0.5-0.1-1.1-0.1-0.5 0-1.1 0-0.5 0.1-1 0.3-0.3 0.1-0.5 0.2-0.2 0.2-0.4 0.3-0.2 0.2-0.3 0.4-0.2 0.2-0.2 0.4-1.6 3-3.1 6-0.1 0.3-0.1 0.5 0 0.3 0 0.5 0.1 0.2 0.3 0.4 0.2 0.2 0.4 0.3 0.2 0.1 0.4 0.1 0.3 0 0.5 0 0.2-0.1 0.4-0.2 0.2-0.2 0.3-0.4 0.2-0.5 0.5-1 0-0.1 0.1-0.1 0-0.1 0.1-0.1 0.1 0 0.1 0 0.1 0 0.1 0.1v2.5q0 0.1 0.1 0.3 0 0.2 0.1 0.4 0.1 0.2 0.3 0.3 0.1 0.1 0.3 0.2 0 3.5 0 6.9 0 0.2 0 0.5 0 0.1 0.1 0.3 0.1 0.2 0.3 0.4 0.2 0.1 0.4 0.2 0.1 0.1 0.3 0.1 0.2 0.1 0.5 0.1 0.1-0.1 0.4-0.1 0.2-0.1 0.3-0.2c0.2-0.2 0.3-0.2 0.6 0q0.3 0.2 0.7 0.3 0.4 0 0.7-0.1 0.4-0.2 0.6-0.5 0.2-0.3 0.3-0.7 0-0.1 0-0.2 0-0.1 0-0.2 0-0.1 0-0.2 0 0 0-0.1 0-3.1 0-6.2 0-0.2 0-0.3 0.2-0.1 0.3-0.2 0.1-0.2 0.2-0.3 0.1-0.2 0.2-0.4 0-0.2 0-0.3v-2.5q0.1-0.1 0.2-0.1 0 0 0.1 0 0.1 0 0.1 0.1 0.1 0 0.1 0.1 0.2 0.5 0.5 1 0 0.1 0.1 0.2 0.1 0.1 0.2 0.2 0.1 0.1 0.2 0.1 0.1 0.1 0.3 0.1 0.2 0 0.3 0 0.2 0 0.4-0.1 0.2-0.1 0.4-0.2 0.1-0.1 0.2-0.3z"/>
		<path id="Path_70" class="s0" d="m9 18.7q-0.6 0-1 0.2-0.5 0.2-0.9 0.6-0.4 0.4-0.6 0.9-0.2 0.5-0.2 1c0 0.7 0.3 1.4 0.8 1.9 0.5 0.5 1.2 0.8 1.9 0.8 0.7 0 1.4-0.3 1.9-0.7 0.5-0.6 0.8-1.2 0.8-2q0-0.5-0.2-1-0.3-0.5-0.6-0.9-0.4-0.4-0.9-0.6-0.5-0.2-1-0.2z"/>
	</g>
	<path id="Path_71" class="s1" d="m2.8 15.4c0.4 0.3 0.7 0.1 1.1-0.2q0.3-0.3 0.7-0.6 0.6-0.5 1.4-0.8 0.9-0.4 1.7-0.4 0.9 0 1.7 0.4 0.8 0.3 1.5 0.8 0.3 0.3 0.6 0.5 0.3 0.3 0.5 0.7 0.3 0.2 0.5 0.6 0.3 0.3 0.4 0.6c0.5 0.8 1 0.8 1.5 0.1 0.1-0.2 0.2-0.4 0.4-0.6 1.1-1.6 2.4-2.8 4.4-3v13.1q0 0.1 0.1 0.3 0.2 0.1 0.4 0.1 0.1 0 0.3-0.1 0.1-0.2 0.1-0.3v-13.1c2 0.1 3.3 1.4 4.5 3 1 1.5 1.1 1.5 2.2 0 1.2-1.8 2.7-3.1 5-3 1.5 0 2.6 0.7 3.6 1.6 0.5 0.4 0.9 0.6 1.4 0.2v-0.6c-0.3-0.1-0.3-0.4-0.3-0.6-1.4-4.5-4.2-7.7-8.3-9.7q-1-0.5-1.9-0.8-1-0.4-2.1-0.7-1-0.2-2-0.4-1.1-0.1-2.1-0.1v-2q0-0.2-0.1-0.3-0.2-0.1-0.3-0.1-0.2 0-0.4 0.1-0.1 0.1-0.1 0.3v2q-0.3 0-0.7 0-0.4 0-0.7 0.1-0.4 0-0.8 0-0.3 0.1-0.7 0.2c-5.4 0.9-9.7 3.6-12.5 8.5q-0.2 0.4-0.4 0.8-0.2 0.3-0.3 0.7-0.2 0.4-0.3 0.8-0.1 0.4-0.3 0.8c-0.1 0.5-0.1 0.8 0.3 1.1z"/>
</svg>