<svg version="1.2" xmlns="http://www.w3.org/2000/svg" viewBox="0 0 40 39" width="40" height="39">
	<title>fourth-4-svg</title>
	<style>
		.s0 { fill: none } 
		.s1 { fill: #206346 } 
		.s2 { fill: #51b254 } 
	</style>
	<path id="Path_91" class="s0" d="m21 34.5q-1.2 0-2.4 0-1.3 0-2.6 0c-0.3 0-0.3 0.1-0.2 0.3q0.5 0.7 1.2 1.1 0.7 0.4 1.5 0.4 0.8 0 1.5-0.4 0.8-0.4 1.2-1.1c0.1-0.1 0.2-0.1 0.1-0.3-0.1-0.1-0.2 0-0.3 0z"/>
	<path id="Path_92" class="s0" d="m18.5 3.9c0.3 0 0.6 0 0.6-0.5 0-0.4-0.2-0.7-0.6-0.7-0.3 0-0.5 0.3-0.6 0.7 0 0.5 0.3 0.5 0.6 0.5z"/>
	<path id="Path_93" fill-rule="evenodd" class="s1" d="m29.1 24.4q0.2 0 0.4 0 0.2 0 0.4-0.1 0.2 0 0.4 0c0 0.8 0 1.5 0 1.9 0 0.3 0.1 0.5 0.4 0.5q0.4 0.1 0.8 0.3 0.4 0.1 0.8 0.3 0.3 0.3 0.6 0.5 0.3 0.3 0.6 0.6 0.4 0.6 0.6 1.3 0.1 0.7 0 1.4-0.1 0.7-0.5 1.3-0.4 0.6-0.9 1-0.4 0.3-0.8 0.5-0.3 0.2-0.7 0.3-0.4 0.1-0.9 0.2-0.4 0.1-0.8 0.1-2.4 0-4.8 0-0.1 0-0.2 0-0.1 0-0.2 0.1 0 0-0.1 0.1-0.1 0.1-0.1 0.2c-0.8 2.3-2.4 3.7-4.8 4q-1 0.2-2 0-1-0.2-1.9-0.8-0.9-0.5-1.5-1.3-0.6-0.8-0.9-1.8-0.1-0.1-0.1-0.2-0.1-0.2-0.2-0.2-0.1-0.1-0.2-0.1-0.2-0.1-0.3 0-2.4 0-4.7 0-0.5 0-0.9-0.1-0.5-0.1-0.9-0.2-0.4-0.2-0.8-0.4-0.4-0.3-0.8-0.6c-1.9-1.7-1.6-4.5 0.6-5.8q0.2-0.1 0.4-0.2 0.2-0.1 0.4-0.2 0.2-0.1 0.4-0.2 0.2 0 0.4-0.1c0.4 0 0.5-0.2 0.5-0.5 0-2.4 0-8.2 0-10.6q0-1.1 0.2-2.3 0.2-1.1 0.7-2.2 0.4-1.1 1.1-2 0.6-1 1.4-1.8 0.5-0.5 1-0.9 0.5-0.4 1.1-0.8 0.6-0.3 1.2-0.6 0.6-0.3 1.2-0.5c0.4-0.1 0.6-0.3 0.6-0.7q-0.1-0.4-0.1-0.7 0.1-0.4 0.2-0.8 0.1-0.3 0.3-0.6 0.2-0.4 0.4-0.6c0.4-0.5 1-0.8 1.6-1 0.6-0.2 1.2-0.1 1.8 0.1 0.6 0.1 1.2 0.5 1.6 1 0.4 0.5 0.6 1.1 0.7 1.7q0 0.1 0 0.2 0 0.2 0 0.3 0 0.1 0 0.3 0 0.1 0 0.2 0 0.1 0.1 0.2 0 0.1 0 0.2 0.1 0.1 0.2 0.1 0.1 0.1 0.2 0.1 0.5 0.2 1 0.4 0.6 0.2 1.1 0.5 0.4 0.3 0.9 0.6 0.5 0.3 0.9 0.7-0.4 0.1-0.7 0.3-0.4 0.1-0.7 0.3-0.4 0.1-0.7 0.3-0.3 0.2-0.6 0.4-0.7-0.4-1.5-0.8-0.7-0.3-1.5-0.4-0.8-0.2-1.7-0.2-0.8-0.1-1.6 0.1c-3.4 0.5-5.8 2.5-7.1 5.6q-0.2 0.4-0.3 0.9-0.1 0.4-0.2 0.8-0.1 0.5-0.1 0.9 0 0.5 0 0.9c0 3.1 0 9.6 0 12.7 0 0.8 0 0.8-0.7 0.8q-0.7 0-1.3 0-0.1 0-0.3 0-0.2 0-0.3 0.1-0.2 0-0.4 0.1-0.1 0-0.3 0.1c-0.8 0.5-0.8 1.3 0 1.8q0.2 0.1 0.4 0.2 0.2 0.1 0.4 0.1 0.2 0.1 0.4 0.1 0.2 0 0.4 0 5.3 0 10.7 0 5.4 0 10.8 0 0.3 0 0.5 0 0.2-0.1 0.5-0.1 0.2-0.1 0.4-0.2 0.2-0.1 0.4-0.3 0.2-0.1 0.3-0.3 0.1-0.2 0.1-0.4 0-0.2-0.1-0.4-0.1-0.2-0.3-0.3-0.1-0.1-0.2-0.2-0.1 0-0.2-0.1-0.2 0-0.3-0.1-0.1 0-0.2 0-0.3-0.1-0.5-0.1-0.3 0-0.5 0-0.3 0-0.5 0-0.3 0-0.5 0c-0.6 0-0.6 0-0.6-0.6 0-1.2 0-2.7 0-4.4q0.1 0.1 0.2 0.1 0.2 0 0.3 0 0.2 0 0.3 0 0.1 0 0.3 0 0.2 0 0.4 0zm-10.6-20.5c0.3 0 0.6 0 0.6-0.5 0-0.4-0.2-0.7-0.6-0.7-0.3 0-0.5 0.3-0.6 0.7 0 0.5 0.3 0.5 0.6 0.5zm2.8 30.6c-0.1-0.1-0.2 0-0.3 0q-1.2 0-2.4 0-1.3 0-2.6 0c-0.3 0-0.3 0.1-0.2 0.3q0.5 0.7 1.2 1.1 0.7 0.4 1.5 0.4 0.8 0 1.5-0.4 0.8-0.4 1.2-1.1c0.1-0.1 0.2-0.1 0.1-0.3z"/>
	<path id="Path_94" fill-rule="evenodd" class="s2" d="m31.6 8.2q1.4 0.6 2.5 1.7 1.1 1.1 1.7 2.5 0.6 1.4 0.6 3c0 3.1-1.9 6-4.8 7.2-3 1.2-6.3 0.5-8.5-1.7-2.3-2.2-2.9-5.6-1.7-8.5 1.2-2.9 4-4.8 7.2-4.8q1.5 0 3 0.6zm1.5 4.8q0-0.3-0.2-0.5-0.2-0.2-0.5-0.3-0.4 0.1-0.6 0.3l-3.2 3.2-3.3-3.2q-0.2-0.2-0.5-0.3-0.3 0.1-0.6 0.3-0.2 0.2-0.2 0.5 0 0.3 0.2 0.6l3.8 3.7q0.1 0.1 0.3 0.2 0.1 0.1 0.3 0.1 0.1 0 0.3-0.1 0.1-0.1 0.2-0.2l3.8-3.7q0.2-0.3 0.2-0.6z"/>
</svg>