<svg version="1.2" xmlns="http://www.w3.org/2000/svg" viewBox="0 0 40 39" width="40" height="39">
	<title>first-1-svg</title>
	<style>
		.s0 { fill: #206346 } 
		.s1 { fill: #51b254 } 
	</style>
	<path id="Path_114" fill-rule="evenodd" class="s0" d="m37.3 5.5v6.9q-0.1 0.9-0.2 1.8-0.1 0.9-0.2 1.8-0.1 0.9-0.3 1.8-0.2 0.9-0.4 1.8c-1.4 5.8-4 10.8-8.6 14.7q-0.9 0.7-1.8 1.4-0.9 0.6-1.8 1.1-1 0.6-2 1.1-0.9 0.5-2 0.9h-0.6q-0.5-0.2-1-0.4-1.7-0.7-3.2-1.6-1.6-1-3-2.1-1.4-1.2-2.6-2.5-1.2-1.4-2.2-2.9-0.8-1.2-1.4-2.4-0.7-1.3-1.2-2.6-0.5-1.3-0.9-2.6-0.5-1.4-0.7-2.7-0.2-1-0.4-2-0.2-0.9-0.3-1.9-0.1-0.9-0.3-1.9-0.1-1-0.1-1.9v-6.2c0.3 0.1 0.6 0.1 0.9 0.1 5.7 0.1 11-1.3 15.7-4.8 0.7-0.5 1.2-0.5 2-0.1 5.1 3.1 10.4 5.6 16.6 5.2zm-2.2 5.2q0-1.4 0-2.8c0-0.5-0.1-0.7-0.6-0.7q-1 0.1-1.9 0-1-0.1-2-0.3-0.9-0.2-1.8-0.4-1-0.3-1.9-0.6-0.8-0.4-1.7-0.7-0.8-0.4-1.7-0.8-0.8-0.4-1.6-0.9-0.8-0.4-1.6-0.9c-0.4-0.3-0.7-0.4-1.1-0.1q-1.5 1.1-3.2 2-1.7 0.9-3.5 1.5-1.8 0.5-3.7 0.8-1.9 0.3-3.8 0.2c-0.6 0-0.8 0.3-0.8 0.9-0.1 5.1 0.4 10.2 2.2 15.1 2.3 6.2 6.4 10.6 12.5 13.1q0.1 0.1 0.4 0.2 0.2 0 0.4 0 0.2 0 0.4 0 0.2-0.1 0.4-0.2c5.7-2.4 9.8-6.4 12.2-12.1 1.8-4.2 2.4-8.7 2.4-13.3z"/>
	<g id="Group_64">
		<path id="Path_115" fill-rule="evenodd" class="s1" d="m28.7 18.5c0 3.7-2.2 7-5.6 8.4-3.3 1.4-7.2 0.6-9.8-2-2.6-2.6-3.3-6.5-1.9-9.8 1.4-3.4 4.7-5.6 8.3-5.6 1.2 0 2.4 0.2 3.5 0.7 1.1 0.4 2 1.1 2.9 1.9 0.8 0.9 1.5 1.9 1.9 3 0.5 1.1 0.7 2.3 0.7 3.4zm-13-1.1c-0.1 0-0.2 0-0.2 0.1q-0.7 0.7-1.4 1.4c-0.2 0.2-0.2 0.2 0 0.4q1.8 1.9 3.7 3.7c0.2 0.2 0.2 0.2 0.4 0q1.6-1.5 3.1-3.1 2-2 4-4c0.2-0.2 0.2-0.3 0-0.4q-0.7-0.7-1.3-1.4c-0.3-0.2-0.3-0.2-0.5 0l-5.3 5.4c-0.2 0.1-0.2 0.1-0.4-0.1q-1-0.9-1.9-1.9c-0.1-0.1-0.1-0.1-0.2-0.1z"/>
	</g>
</svg>