<svg version="1.2" xmlns="http://www.w3.org/2000/svg" viewBox="0 0 40 40" width="40" height="40">
	<title>second-2-svg</title>
	<style>
		.s0 { fill: #206346 } 
		.s1 { fill: #51b254 } 
		.s2 { fill: none } 
	</style>
	<path id="Path_98" class="s0" d="m5 28.2c0-0.9 0.1-0.8-0.8-0.8-1 0-0.9-0.2-0.9 0.9 0 0.9-0.1 0.8 0.8 0.8 1.1 0 0.9 0.1 0.9-0.9z"/>
	<path id="Path_99" class="s0" d="m7.5 28.2c0-1 0.1-0.8-0.9-0.8-0.9 0-0.9-0.2-0.9 0.9 0 0.9 0 0.8 0.9 0.8 1.1 0 0.9 0.1 0.9-0.9z"/>
	<path id="Path_100" class="s0" d="m9.2 27.4c-1.1 0-1-0.2-1 0.9 0 0.8 0 0.8 0.8 0.8 1.2 0 1 0.1 1-0.9 0-0.9 0.1-0.8-0.8-0.8z"/>
	<path id="Path_101" fill-rule="evenodd" class="s1" d="m20 14.1q0 0.1-0.1 0.3-0.1 0.2-0.2 0.3-0.1 0.2-0.3 0.2-0.2 0.1-0.4 0.1-0.6 0-1.2 0c-1.1 0-1.1 0-1.1 1.1q0 0.6 0 1.3 0 0.1-0.1 0.2 0 0.2-0.1 0.3-0.1 0.1-0.2 0.2-0.1 0.1-0.2 0.1-0.1 0.1-0.2 0.1-0.2 0-0.3 0-0.1 0-0.2-0.1-0.2-0.1-0.3-0.2-0.1 0-0.1-0.1-1.6-1.3-3.2-2.6 0-0.1-0.1-0.2-0.1 0-0.2-0.1-0.1 0-0.2 0-0.1 0-0.2 0-3.4 0-6.7 0c-0.8 0-1.1-0.3-1.1-1.2q-0.1-2 0-4.1 0-0.9 0-1.8 0 0 0 0 0-0.1-0.1-0.1 0 0 0 0 0 0 0-0.1v-2.3q0 0 0 0 0.1 0 0.1 0 0-0.1 0-0.1 0 0 0 0-0.1-2.1 0-4.2-0.1-0.2 0-0.3 0-0.2 0.1-0.3 0-0.2 0.2-0.3 0.1-0.1 0.2-0.2h15.7q0.1 0.1 0.2 0.2 0 0 0.1 0.1 0.1 0.2 0.1 0.3 0 0.1 0.1 0.2v3.9q0 0.3-0.1 0.6 0 0 0.1 0.1v3.6q0 2.5 0 5.1zm-4.2-5.3c0-0.6 0-0.6-0.6-0.6q-3.6 0-7.1 0-0.2 0-0.3 0-0.4 0-0.4 0.4 0 0.1 0.1 0.2 0 0.1 0 0.3 0 0.1-0.1 0.2 0 0.1 0 0.2c0 0.4 0.2 0.5 0.5 0.5q1.9 0 3.7 0h3.1c1.1 0 1.1 0 1.1-1.2zm0-2.6q0-0.1 0-0.2 0-0.1 0-0.2 0-0.1 0-0.2 0-0.1 0-0.2c0.1-0.3-0.1-0.5-0.4-0.5q-1.9 0.1-3.8 0.1h-3c-1.2 0-1.2 0-1.2 1.2 0 0.5 0.1 0.5 0.6 0.5q2.7 0 5.5 0 0.9 0 1.8 0c0.4 0 0.6-0.1 0.5-0.5z"/>
	<path id="Path_102" class="s0" d="m23.6 20.1c-0.4 0-0.9-0.2-1.2 0.1-0.2 0.2-0.1 0.7-0.1 1.1q0 0.8 0 1.6h1.8q0-1.2 0-2.4c0-0.3-0.1-0.5-0.5-0.4z"/>
	<path id="Path_103" class="s0" d="m19 19.3q0 1.8 0 3.6h1.7q0-1.7 0-3.5 0-0.5 0.2-1 0.2-0.5 0.5-0.8 0.4-0.4 0.8-0.6 0.5-0.2 1-0.2 0.4 0 0.7-0.1 0.4 0 0.7-0.2 0.4-0.2 0.7-0.4 0.3-0.2 0.5-0.5-0.2-0.1-0.4-0.1-0.3-0.1-0.5-0.3-0.2-0.1-0.4-0.2-0.2-0.1-0.4-0.3-0.1 0.1-0.2 0.2-0.1 0-0.3 0.1-0.1 0-0.3 0-0.1 0-0.2 0-0.9 0.1-1.6 0.4-0.8 0.3-1.4 0.9-0.5 0.6-0.8 1.4-0.3 0.8-0.3 1.6z"/>
	<path id="Path_104" class="s0" d="m31.6 16.8q0.5 0 1 0.2 0.4 0.2 0.8 0.6 0.3 0.3 0.5 0.8 0.2 0.4 0.1 0.9 0 1.8 0 3.6h1.8q0-1.8 0-3.5 0-0.8-0.2-1.5-0.3-0.7-0.7-1.3-0.5-0.6-1.2-1-0.7-0.4-1.4-0.5c-0.4-0.1-0.7-0.1-1.1-0.1q-0.1-0.1-0.1-0.1-0.1 0-0.2 0-0.1 0-0.1-0.1-0.1 0-0.1-0.1-0.2 0.2-0.4 0.3-0.2 0.1-0.4 0.2-0.3 0.2-0.5 0.3-0.2 0-0.4 0.1 0.2 0.3 0.5 0.5 0.3 0.2 0.7 0.4 0.3 0.2 0.7 0.2 0.3 0.1 0.7 0.1z"/>
	<path id="Path_105" class="s0" d="m32 20.1q-0.1 0-0.2 0-0.1 0-0.2 0-0.1 0-0.2 0-0.2 0-0.3 0c-0.3-0.1-0.4 0.1-0.4 0.4q0 1.2 0 2.4h1.8q-0.1-1.2 0-2.4c0-0.3-0.1-0.5-0.5-0.4z"/>
	<path id="Path_106" class="s0" d="m32.9 5.9q-0.1-0.1-0.1-0.2 0 0.1 0.1 0.2z"/>
	<path id="Path_107" class="s0" d="m22 5.7q0 0.1 0 0.1 0 0 0-0.1z"/>
	<path id="Path_108" fill-rule="evenodd" class="s0" d="m27.4 14.8c-2.8 0-5.1-2.7-5.1-6 0-3.3 2.3-5.9 5.1-5.9 2.8 0 5.1 2.6 5.1 5.9 0 3.3-2.3 6-5.1 6zm3.9-6c0-2.6-1.7-4.8-3.9-4.8-2.2 0-3.9 2.2-3.9 4.8 0 2.7 1.7 4.8 3.9 4.8 2.2 0 3.9-2.1 3.9-4.8z"/>
	<path id="Path_109" class="s2" d="m37.4 25.8h-34.9q-0.2 0-0.4 0-0.4 0-0.4 0.3 0 1.9 0 3.9 0 0.1 0.1 0.2 0.1 0.2 0.1 0.2 0.1 0.1 0.3 0.2 0.1 0 0.2 0 0.3 0.1 0.6 0.1h24.2q5 0 10 0c0.7 0 0.9-0.3 0.9-1q0-1.6 0-3.2c0-0.7 0-0.7-0.7-0.7z"/>
	<path id="Path_110" class="s2" d="m22.7 35.8c-0.2 0-0.3-0.2-0.3-0.4q0-0.6 0-1.1c0-0.2 0.1-0.3 0.3-0.3 0.5 0.1 0.5-0.2 0.5-0.6q0-0.3 0-0.5c0-0.5 0-0.5-0.5-0.5q-2.5 0-4.9 0c-1.3 0-1.1-0.2-1.1 1.2 0 0.3 0.1 0.4 0.4 0.4q1.2 0 2.5 0c0.2 0 0.4 0.1 0.4 0.4q-0.1 0.3 0 0.7c0 0.7 0 0.6-0.7 0.7q-0.4-0.1-0.7-0.1-0.4 0-0.7 0-0.4 0.1-0.8 0.1-0.3 0-0.7 0c-1.1 0.2-2.1 0.7-2.7 1.8-0.2 0.5-0.2 0.5 0.3 0.5q3 0 5.9 0 3 0 6 0c0.5 0 0.5 0 0.3-0.5q-0.2-0.3-0.4-0.5-0.2-0.3-0.5-0.5-0.2-0.2-0.5-0.4-0.3-0.1-0.6-0.2-0.2-0.1-0.4-0.1-0.2 0-0.3-0.1-0.2 0-0.4 0-0.2 0-0.4 0z"/>
	<path id="Path_111" class="s2" d="m19.9 5.3q0 0 0.1 0.1v-0.7q0 0.3-0.1 0.6z"/>
	<path id="Path_112" fill-rule="evenodd" class="s0" d="m39.9 7.7v22.8c-0.5 1.4-1.5 2-2.9 1.9-2.6 0-5.1 0-7.6 0q-2 0-4 0c-0.3 0-0.5 0.1-0.5 0.4q0.1 0.6 0 1.2 0 0.1 0 0.2 0.1 0.1 0.1 0.1 0.1 0.1 0.1 0.2 0.1 0 0.2 0 0.5 0.3 0.9 0.6 0.5 0.3 0.9 0.7 0.3 0.5 0.6 1 0.3 0.4 0.4 1 0 0.1 0.1 0.1 0 0.1 0.1 0.1 0 0.1 0.1 0.1 0.1 0 0.1 0 0.6 0 1.1 0 0.3 0 0.3 0.4 0 0.7 0 1.4h-19.9q-0.1-0.7-0.1-1.4 0-0.4 0.4-0.4c0.3 0 0.5 0 0.8 0q0.1 0.1 0.3 0 0.1 0 0.2-0.1 0.1 0 0.1-0.1 0.1-0.1 0.1-0.3 0.1-0.4 0.3-0.8 0.2-0.4 0.4-0.7 0.3-0.4 0.7-0.7 0.3-0.2 0.7-0.4c0.9-0.5 1.1-1.1 1-2 0-0.6 0-0.6-0.6-0.6q-5.9 0-11.8 0-0.3 0-0.5 0-0.3-0.1-0.5-0.2-0.3-0.1-0.5-0.2-0.2-0.2-0.4-0.4-0.1-0.1-0.2-0.2-0.1-0.2-0.1-0.3-0.1-0.1-0.2-0.3-0.1-0.1-0.1-0.3v-22.8c0.4-1 0.9-1.6 1.7-1.8v2.5q0 0 0 0 0 0 0 0 0 0.1 0 0.1 0 0 0 0 0 7.5 0 15c0 0.5 0 0.5 0.6 0.5q4 0 8.1 0c2.7 0 26.7 0 27.2 0 0.5 0 0.5 0 0.5-0.5q0-3.8 0-7.5 0-3.8 0-7.5c0-0.7-0.3-1-1-1q-1.9 0-3.8 0 0-0.2-0.1-0.4 0-0.2-0.1-0.4 0-0.2-0.1-0.4-0.1-0.2-0.1-0.4-0.1-0.1-0.1-0.2 2.1 0 4.2 0c1.5 0 2.3 0.6 2.9 2zm-14.1 29.4q-0.2-0.3-0.5-0.5-0.2-0.2-0.5-0.4-0.3-0.1-0.6-0.2-0.2-0.1-0.4-0.1-0.2 0-0.3-0.1-0.2 0-0.4 0-0.2 0-0.4 0c-0.2 0-0.3-0.2-0.3-0.4q0-0.6 0-1.1c0-0.2 0.1-0.3 0.3-0.3 0.5 0.1 0.5-0.2 0.5-0.6q0-0.3 0-0.5c0-0.5 0-0.5-0.5-0.5q-2.5 0-4.9 0c-1.3 0-1.1-0.2-1.1 1.2 0 0.3 0.1 0.4 0.4 0.4q1.2 0 2.5 0c0.2 0 0.4 0.1 0.4 0.4q-0.1 0.3 0 0.7c0 0.7 0 0.6-0.7 0.7q-0.4-0.1-0.7-0.1-0.4 0-0.7 0-0.4 0.1-0.8 0.1-0.3 0-0.7 0c-1.1 0.2-2.1 0.7-2.7 1.8-0.2 0.5-0.2 0.5 0.3 0.5q3 0 5.9 0 3 0 6 0c0.5 0 0.5 0 0.3-0.5q-0.2-0.3-0.4-0.5zm12.3-10.6c0-0.7 0-0.7-0.7-0.7h-34.9q-0.2 0-0.4 0-0.4 0-0.4 0.3 0 1.9 0 3.9 0 0.1 0.1 0.2 0 0.2 0.1 0.2 0.1 0.1 0.3 0.2 0.1 0 0.2 0 0.3 0.1 0.6 0h24.2q5 0.1 10 0c0.7 0 0.9-0.2 0.9-0.9q0-1.6 0-3.2z"/>
	<path id="Path_113" class="s0" d="m20 1q0 0 0 0 0-0.1 0-0.1 0 0 0 0 0-0.1 0-0.1v3.9q0-1.8 0-3.7z"/>
</svg>