<svg version="1.2" xmlns="http://www.w3.org/2000/svg" viewBox="0 0 40 42" width="40" height="42">
	<title>second-svg</title>
	<style>
		.s0 { fill: #206346 } 
		.s1 { fill: #51b254 } 
	</style>
	<path id="Path_59" class="s0" d="m2.4 22.8c0-3.8 0-7.5 0-11.4q0-0.4 0-0.9 0.1-0.5 0.3-0.9 0.2-0.5 0.5-0.8 0.2-0.4 0.6-0.7c2.6-2.4 5-4.8 7.5-7.2q0.3-0.2 0.6-0.4 0.2-0.2 0.6-0.3 0.3-0.1 0.6-0.2 0.3 0 0.7 0c5.1 0 10.2 0 15.3 0 3.4 0 5.5 2 5.6 5.4 0.1 4.5 0 9.2 0.1 13.8 0 1.3-1 0.9-1.7 1-0.8 0.1-1-0.3-1-1.1q0-6.7 0-13.5c0-2.1-0.9-2.9-3-2.9-4.5 0-9.1 0-13.6-0.1-1.1 0-1.4 0.4-1.3 1.5q0 0.2 0 0.4 0 0.3 0 0.5 0 0.3 0 0.6 0 0.2 0 0.4c0 3.1-2.2 5.2-5.4 5.3q-1.2 0.1-2.5 0c-1-0.1-1.3 0.3-1.3 1.3 0 5.7 0 11.5 0 17.3q0 2.4 0 4.9c0.1 1.7 1 2.7 2.8 2.7 4.9 0 0.9 0.1 5.8-0.1 1.9 0 2.6 1.2 3.7 2.2 0.3 0.3 0.2 0.5-0.2 0.5-0.3 0-0.6 0-1 0-5.6 0-2.4 0-8 0-3.6 0-5.7-1.9-5.7-5.5q-0.1-5.9 0-11.8z"/>
	<g id="Group_27">
		<path id="Path_60" class="s0" d="m18.4 17.2q-4.6 0-9.2 0c-0.9 0-1.7-0.2-1.7-1.3 0-1 0.8-1.2 1.6-1.2q9.3 0 18.7 0c0.8 0 1.6 0.1 1.6 1.2 0 1.1-0.8 1.3-1.7 1.3q-4.6 0-9.3 0z"/>
		<path id="Path_61" class="s0" d="m22.8 12c-1.6 0-3.3 0-4.9 0-0.9 0-1.6-0.2-1.7-1.2 0-1 0.7-1.3 1.6-1.3q5.1 0.1 10.1 0c0.8 0 1.5 0.3 1.5 1.2 0 1.1-0.7 1.3-1.6 1.3q-2.5 0-5 0z"/>
		<path id="Path_62" class="s0" d="m14.1 22.3q-2.5 0-5 0c-0.8 0.1-1.6-0.2-1.6-1.2 0-0.9 0.7-1.3 1.6-1.3q5 0 10.1 0c0.8 0 1.5 0.3 1.5 1.2 0 1.1-0.7 1.3-1.6 1.3q-2.5 0-5 0z"/>
	</g>
	<g id="Group_28">
		<path id="Path_63" class="s1" d="m23.7 25.7q0 0.1 0.1 0.1 0 0.1 0.1 0.1 0.1 0.1 0.1 0.1 0.1 0 0.2 0c1.4 0 2.7 0 4 0q2.1 0 4.2 0 0 0 0.1 0 0.1 0 0.1 0 0.1-0.1 0.1-0.1 0 0 0-0.1c0.2-0.7 0.5-1.3 0.8-2q0.1-0.2 0-0.5 0-0.2-0.1-0.4-0.2-0.2-0.4-0.3-0.2-0.1-0.5-0.1c-0.7 0-1.4 0-2.1 0q0 0 0 0-0.1 0-0.1-0.1-0.1 0-0.1 0-0.1 0-0.1 0-0.4-0.4-0.9-0.6-0.4-0.1-1-0.2-0.4 0-1 0.2-0.4 0.2-0.8 0.6 0 0 0 0-0.1 0-0.2 0 0 0.1-0.1 0.1 0 0-0.1 0c-0.7 0-1.3 0-2 0q-0.3-0.1-0.5 0.1-0.2 0.1-0.3 0.3-0.2 0.2-0.2 0.4 0 0.3 0.1 0.5 0.3 0.9 0.6 1.9z"/>
		<path id="Path_64" fill-rule="evenodd" class="s1" d="m37.6 36.8q0 0.4 0 0.9-0.1 0.4-0.2 0.8-0.2 0.5-0.4 0.9-0.2 0.4-0.5 0.8-0.3 0.4-0.7 0.6-0.4 0.3-0.8 0.5-0.5 0.2-0.9 0.3-0.1 0-0.1 0-0.1 0-0.2 0 0 0-0.1 0-0.1 0-0.1 0-2.7 0-5.4 0c-1.7 0-3.4 0-5 0q-0.6 0-1-0.1-0.5-0.1-1-0.3-0.4-0.2-0.8-0.6-0.4-0.3-0.6-0.7-0.3-0.4-0.5-0.8-0.2-0.4-0.3-0.9-0.1-0.4-0.1-0.9 0-0.5 0-0.9c0.3-2.8 1.5-4.9 3.1-7q0.3-0.3 0.5-0.6 0.3-0.3 0.6-0.6 0.2-0.3 0.5-0.6 0.3-0.3 0.5-0.5 0.1 0 0.1-0.1 0.1 0 0.2 0 0-0.1 0.1-0.1 0.1 0 0.1 0 3.6 0 7.3 0 0.1 0 0.1 0 0 0 0.1 0.1 0.1 0 0.1 0 0.1 0.1 0.1 0.1 0.6 0.5 1.2 1.1 0.5 0.6 1 1.2 0.5 0.7 0.9 1.3 0.5 0.7 0.8 1.4 0.3 0.4 0.5 0.8 0.2 0.5 0.3 1 0.2 0.5 0.3 1 0.2 0.5 0.2 1 0.1 0.5 0.1 0.9zm-6-6.8h-5.9q0 0-0.6 1h1.6q0.1 0 0.2 0 0.1 0 0.2 0 0.1 0.1 0.2 0.1 0.1 0 0.2 0.1 0.2 0 0.3 0.1 0.2 0.1 0.3 0.2 0.1 0.1 0.2 0.2 0.1 0.2 0.2 0.3v0.1h-2.8q0 0-0.6 0.9 0 0 0 0h3.5q0 0.1 0 0.1 0 0.1 0 0.1 0 0.1 0 0.2 0 0 0 0.1-0.5 1.4-2.4 1.4-0.1 0-0.2 0-0.1 0-0.2 0-0.1 0-0.2-0.1-0.1 0-0.2 0v0.9q0 0.1 3.4 4.6h1.4q0 0 0 0v-0.2l-2.9-3.9q-0.1-0.1-0.1-0.2-0.1-0.1-0.1-0.1-0.1-0.1-0.1-0.2-0.1 0-0.1-0.1 0.2 0 0.4-0.1 0.2 0 0.4-0.1 0.3 0 0.4-0.1 0.2-0.1 0.4-0.2 0.2-0.1 0.3-0.2 0.1-0.1 0.3-0.2 0.1-0.1 0.2-0.2 0.1-0.2 0.2-0.3 0.1-0.1 0.1-0.3 0.1-0.1 0.1-0.3 0.1-0.1 0.1-0.3 0.1-0.1 0.1-0.3h1.1q0 0 0.6-0.9 0 0-0.1 0h-1.7q0-0.2 0-0.3-0.1-0.2-0.1-0.3-0.1-0.1-0.1-0.3-0.1-0.1-0.2-0.2h1.6q0.1-0.1 0.2-0.2 0-0.1 0.1-0.3 0.1-0.1 0.1-0.2 0.1-0.2 0.2-0.2z"/>
	</g>
</svg>