<svg version="1.2" xmlns="http://www.w3.org/2000/svg" viewBox="0 0 40 46" width="40" height="46">
	<title>third-svg</title>
	<style>
		.s0 { fill: #206346 } 
		.s1 { fill: #51b254 } 
	</style>
	<path id="Path_85" class="s0" d="m0 22.9c0-3.8 0-7.6 0-11.4q0-0.5 0.1-1 0-0.4 0.2-0.9 0.2-0.4 0.5-0.8 0.3-0.4 0.6-0.7c2.6-2.4 5-4.8 7.5-7.2q0.2-0.2 0.5-0.4 0.3-0.2 0.6-0.3 0.3-0.1 0.6-0.2 0.3 0 0.7 0 7.5 0 15.1 0c3.4 0 5.4 1.9 5.5 5.4 0.1 4.6 0 9.2 0.1 13.8 0 1.4-1 0.9-1.6 1-0.9 0.1-1.1-0.3-1.1-1q0-6.8 0-13.5c0-2.2-0.8-3-2.9-3-4.5 0-8.9 0-13.4-0.1-1.1 0-1.5 0.4-1.4 1.5q0.1 0.2 0.1 0.5 0 0.2 0 0.4 0 0.3 0 0.5 0 0.3 0 0.5c-0.1 3.1-2.2 5.3-5.3 5.3-0.8 0-1.7 0.1-2.5 0-1-0.1-1.3 0.3-1.3 1.3 0.1 5.8 0 11.6 0 17.3q0 2.5 0 4.9 0.1 2.7 2.8 2.8c4.8 0 0.9 0.1 5.7-0.1 1.9-0.1 2.6 1.2 3.7 2.2 0.2 0.3 0.1 0.5-0.3 0.5q-0.5 0-0.9 0c-5.6 0-2.4 0-7.9 0-3.6 0-5.6-2-5.7-5.6 0-3.9 0-7.8 0-11.7z"/>
	<g id="Group_58">
		<path id="Path_86" class="s0" d="m15.9 17.2q-4.6 0-9.2 0c-0.9 0-1.6-0.2-1.6-1.3 0-1 0.7-1.2 1.6-1.2q9.2 0 18.3 0c0.9 0 1.6 0.2 1.6 1.2 0 1.1-0.7 1.3-1.6 1.3q-4.6 0-9.1 0z"/>
		<path id="Path_87" class="s0" d="m20.2 12q-2.5 0-4.9 0.1c-0.9 0-1.6-0.3-1.6-1.3 0-0.9 0.7-1.3 1.6-1.2q4.9 0 9.9 0c0.8 0 1.4 0.2 1.5 1.2 0 1-0.7 1.3-1.6 1.2q-2.5 0-4.9 0z"/>
		<path id="Path_88" class="s0" d="m11.6 22.4q-2.5 0-4.9 0c-0.9 0-1.6-0.3-1.6-1.2 0-1 0.6-1.3 1.5-1.3q5 0 10 0c0.8 0 1.4 0.2 1.4 1.2 0.1 1-0.6 1.3-1.5 1.3q-2.5 0-4.9 0z"/>
	</g>
	<g id="Group_59">
		<path id="Path_89" class="s1" d="m37.1 36.7l2.9-5.1h-1.7c-1.3-5-5.7-8.5-10.9-8.6-5.1 0-9.6 3.4-10.9 8.4-1.4 5 0.8 10.2 5.2 12.8 4.4 2.6 10 1.9 13.6-1.8 0.2-0.2 0.4-0.5 0.4-0.8 0-0.4-0.2-0.7-0.4-0.9-0.2-0.3-0.5-0.4-0.9-0.4-0.3 0-0.6 0.1-0.8 0.4-2.8 2.8-7.1 3.4-10.6 1.5-3.4-2-5.2-6-4.3-9.9 0.9-3.9 4.3-6.6 8.3-6.8 3.9-0.2 7.5 2.3 8.7 6.1l-1.6 0.1z"/>
		<path id="Path_90" fill-rule="evenodd" class="s1" d="m29.7 28.5q1.1 0.5 2 1.4 0.9 0.9 1.4 2.1 0.5 1.1 0.5 2.4c0 2.6-1.6 5-3.9 6-2.4 0.9-5.2 0.4-7-1.4-1.8-1.9-2.3-4.6-1.4-7 1-2.4 3.4-4 5.9-4q1.3 0 2.5 0.5zm0.1 2.7h-4.5q0 0-0.4 0.7v0.1h1.2q0.1 0 0.1 0 0.1 0 0.2 0 0.1 0 0.2 0 0.1 0.1 0.1 0.1 0.2 0 0.3 0.1 0.1 0.1 0.2 0.2 0 0 0.1 0.1 0.1 0.1 0.1 0.3h-2.1q0 0-0.4 0.7 0 0 0 0h2.7q0 0.1 0 0.1 0 0.1 0 0.1-0.1 0-0.1 0.1 0 0 0 0.1-0.4 1.1-1.8 1.1-0.1 0-0.2 0 0 0-0.1 0-0.1-0.1-0.1-0.1-0.1 0-0.2 0v0.8q0 0 2.7 3.5h0.9q0 0 0 0 0 0 0 0 0.1 0 0.1 0 0 0 0 0v-0.2l-2.3-3q0-0.1-0.1-0.1 0-0.1 0-0.2-0.1 0-0.1-0.1 0 0-0.1-0.1 0.2 0 0.4 0 0.1 0 0.3-0.1 0.1 0 0.3-0.1 0.1-0.1 0.3-0.2 0.1 0 0.2-0.1 0.1-0.1 0.2-0.2 0.1 0 0.2-0.1 0.1-0.1 0.1-0.3 0.1-0.1 0.1-0.2 0.1-0.1 0.1-0.2 0.1-0.1 0.1-0.2 0-0.1 0-0.3h0.9q0 0 0.4-0.7 0 0 0 0h-1.3q0-0.1 0-0.2-0.1-0.2-0.1-0.3-0.1-0.1-0.1-0.2-0.1 0-0.1-0.1h1.2q0-0.1 0.1-0.2 0.1-0.1 0.1-0.2 0.1-0.1 0.1-0.2 0.1-0.1 0.1-0.2z"/>
	</g>
</svg>