<svg version="1.2" xmlns="http://www.w3.org/2000/svg" viewBox="0 0 85 90" width="85" height="90">
	<title>second-svg</title>
	<style>
		.s0 { fill: #206346 } 
		.s1 { fill: #51b254 } 
	</style>
	<path id="Path_59" class="s0" d="m5 48.9c0-8.1 0.1-16.2 0-24.4q0-1 0.1-2 0.2-1 0.6-2 0.4-0.9 1-1.7 0.6-0.9 1.4-1.5c5.4-5 10.7-10.2 16-15.3q0.5-0.5 1.1-0.9 0.6-0.4 1.3-0.6 0.6-0.3 1.3-0.4 0.7-0.1 1.5-0.1c10.8 0.1 21.7 0 32.6 0 7.2 0 11.7 4.2 11.9 11.5 0.2 9.8 0 19.7 0.1 29.6 0 2.9-2 1.9-3.5 2.1-1.8 0.3-2.2-0.6-2.2-2.2 0-9.7 0-19.3 0-28.9 0-4.6-1.8-6.4-6.3-6.4-9.6 0-19.3 0.1-28.9-0.1-2.3 0-3.1 0.8-2.9 3.1q0 0.5 0.1 1 0 0.6 0 1.1 0 0.5 0 1.1 0 0.5-0.1 1c0 6.6-4.6 11.2-11.3 11.3-1.8 0.1-3.6 0.1-5.4 0-2.1-0.2-2.7 0.7-2.7 2.7 0 12.4 0 24.7 0 37.1 0 3.5 0 7 0 10.5 0.1 3.8 2 5.8 5.9 5.8 10.3 0.1 1.9 0.3 12.3-0.1 4-0.1 5.6 2.5 7.9 4.7 0.6 0.5 0.3 1-0.5 1.1-0.7 0-1.3 0-2 0-12 0-5.1 0-17.1 0-7.6 0-12-4.2-12.1-11.9-0.1-8.4-0.1-16.8-0.1-25.2z"/>
	<g id="Group_27">
		<path id="Path_60" class="s0" d="m39.2 36.8q-9.8 0-19.7 0c-1.9 0-3.6-0.4-3.6-2.7 0.1-2.2 1.7-2.6 3.5-2.6q19.8 0 39.6 0c1.8 0 3.4 0.3 3.4 2.5 0 2.4-1.6 2.8-3.6 2.8q-9.8 0-19.6 0z"/>
		<path id="Path_61" class="s0" d="m48.5 25.8c-3.5 0-7-0.1-10.5 0-1.9 0-3.4-0.5-3.5-2.6 0-2.1 1.4-2.8 3.4-2.8q10.7 0.1 21.3 0c1.8 0 3.2 0.6 3.3 2.6 0 2.2-1.5 2.8-3.4 2.8q-5.3-0.1-10.6 0z"/>
		<path id="Path_62" class="s0" d="m29.9 47.8c-3.5 0-7 0-10.5 0-1.8 0.1-3.4-0.5-3.5-2.6 0-2 1.5-2.7 3.4-2.7q10.7 0 21.4 0c1.8 0 3.2 0.5 3.2 2.6 0 2.2-1.4 2.7-3.3 2.7q-5.4 0-10.7 0z"/>
	</g>
	<g id="Group_28">
		<path id="Path_63" class="s1" d="m50.4 55q0 0.2 0.1 0.3 0.1 0.2 0.3 0.3 0.1 0.2 0.3 0.2 0.2 0 0.4 0c2.8 0 5.7 0 8.5 0q4.4 0 8.8 0 0.1 0 0.2 0 0.2 0 0.3-0.1 0.1-0.1 0.1-0.2 0.1-0.1 0.1-0.2c0.5-1.5 1-2.9 1.6-4.3q0.2-0.5 0.1-1 0-0.5-0.3-1-0.4-0.4-0.8-0.6-0.5-0.2-1-0.2c-1.5 0.1-3 0-4.4 0q-0.1 0-0.2 0-0.1 0-0.2-0.1-0.1 0-0.2-0.1-0.1 0-0.2-0.1-0.8-0.7-1.8-1.1-1-0.4-2.1-0.5-1 0-2.1 0.4-1 0.4-1.7 1.2-0.1 0.1-0.2 0.1-0.1 0.1-0.3 0.1-0.1 0.1-0.2 0.1-0.1 0-0.2 0c-1.5 0-2.9 0.1-4.3 0q-0.6-0.1-1 0.2-0.5 0.2-0.8 0.6-0.3 0.5-0.4 1 0 0.5 0.2 1 0.7 2 1.4 4z"/>
		<path id="Path_64" fill-rule="evenodd" class="s1" d="m79.9 78.8q0 1-0.1 1.9-0.1 1-0.4 1.9-0.3 0.9-0.7 1.8-0.5 0.9-1.1 1.7-0.7 0.8-1.5 1.4-0.8 0.6-1.7 1-1 0.4-2 0.6-0.1 0.1-0.2 0.1-0.1 0-0.3 0-0.1 0-0.2 0-0.2 0-0.3 0-5.7 0-11.4 0c-3.6 0-7.2-0.1-10.8 0q-1.1 0-2.1-0.2-1-0.2-2-0.7-0.9-0.5-1.7-1.2-0.8-0.7-1.4-1.6-0.5-0.8-0.9-1.7-0.5-0.9-0.7-1.9-0.2-1-0.3-2 0-1 0.1-2c0.5-5.8 3.2-10.5 6.6-15q0.5-0.6 1.1-1.2 0.5-0.7 1.1-1.3 0.5-0.6 1.1-1.2 0.6-0.6 1.2-1.1 0.1-0.1 0.2-0.2 0.1-0.1 0.3-0.1 0.1-0.1 0.2-0.1 0.2 0 0.3 0 7.7 0 15.4 0 0.2 0 0.3 0 0.1 0 0.2 0.1 0.2 0 0.3 0.1 0.1 0.1 0.2 0.2 1.2 1.1 2.4 2.3 1.1 1.3 2.2 2.6 1 1.4 1.9 2.8 1 1.4 1.8 2.9 0.5 0.9 1 1.9 0.4 1 0.7 2.1 0.4 1 0.6 2.1 0.3 1.1 0.4 2.1 0.2 1 0.2 1.9zm-12.8-14.5h-12.5q0 0-1.2 2.1h3.3q0.2 0 0.4 0.1 0.3 0 0.5 0 0.3 0.1 0.5 0.2 0.2 0 0.4 0.1 0.4 0.1 0.6 0.3 0.3 0.2 0.6 0.4 0.2 0.3 0.4 0.5 0.3 0.3 0.4 0.6v0.1h-5.9q0 0-1.3 2 0 0.1 0.1 0.1h7.4q0 0.1 0 0.2 0 0.1 0 0.2 0 0.1-0.1 0.3 0 0.1 0 0.2-1 3-5.1 3-0.2 0-0.4 0-0.2 0-0.4 0-0.2 0-0.4-0.1-0.2 0-0.4 0v0.1 1.9q0 0.1 7.3 9.8h2.8q0 0 0 0 0 0 0 0 0 0 0-0.1 0 0 0 0v-0.4l-6.1-8.4q-0.2-0.2-0.3-0.3-0.1-0.2-0.2-0.3-0.1-0.2-0.2-0.3-0.1-0.2-0.2-0.4 0.5 0 0.9-0.1 0.5 0 0.9-0.2 0.5-0.1 0.9-0.3 0.4-0.1 0.8-0.4 0.3-0.2 0.6-0.4 0.3-0.2 0.6-0.4 0.2-0.3 0.4-0.5 0.3-0.3 0.5-0.6 0.1-0.3 0.3-0.6 0.1-0.3 0.2-0.6 0.1-0.3 0.2-0.7 0.1-0.3 0.1-0.6h2.3q0.1 0 1.3-2.1 0 0-0.1 0h-3.6q0-0.3-0.1-0.6-0.1-0.3-0.2-0.6-0.1-0.3-0.3-0.6-0.1-0.2-0.3-0.5h3.3q0.2-0.2 0.4-0.5 0.1-0.2 0.3-0.5 0.2-0.2 0.3-0.5 0.2-0.3 0.3-0.5z"/>
	</g>
</svg>