<svg version="1.2" xmlns="http://www.w3.org/2000/svg" viewBox="0 0 97 97" width="97" height="97">
	<title>second-2-svg</title>
	<style>
		.s0 { fill: #206346 } 
		.s1 { fill: #51b254 } 
		.s2 { fill: none } 
	</style>
	<path id="Path_98" class="s0" d="m12.2 68.4c-0.1-2.3 0.2-2-2.1-2-2.4 0-2.2-0.4-2.2 2.2 0 2.2-0.2 2 2 2 2.6 0 2.2 0.2 2.3-2.2z"/>
	<path id="Path_99" class="s0" d="m18.2 68.5c0-2.4 0.3-2.1-2.1-2.1-2.3 0-2.2-0.4-2.2 2.1 0 2.3-0.1 2.1 2.1 2.1 2.6 0 2.2 0.2 2.2-2.1z"/>
	<path id="Path_100" class="s0" d="m22.3 66.4c-2.6 0-2.3-0.4-2.3 2.3 0 1.9 0 1.9 1.9 1.9 2.7 0 2.3 0.3 2.3-2.3 0-2.2 0.3-1.9-1.9-1.9z"/>
	<path id="Path_101" fill-rule="evenodd" class="s1" d="m48.4 34.1q0 0.4-0.1 0.9-0.2 0.4-0.5 0.7-0.3 0.4-0.7 0.5-0.5 0.2-0.9 0.1-1.5 0-3.1 0c-2.7 0-2.7 0-2.7 2.7 0 1 0.1 2.1 0 3.1q0 0.3-0.1 0.6-0.1 0.4-0.2 0.7-0.2 0.2-0.5 0.5-0.2 0.2-0.5 0.3-0.3 0.1-0.6 0.2-0.4 0-0.7-0.1-0.3 0-0.6-0.2-0.3-0.1-0.5-0.3-0.2-0.2-0.4-0.4c-2.5-2.1-5.1-4.3-7.6-6.4q-0.2-0.2-0.4-0.3-0.2-0.1-0.4-0.2-0.3-0.1-0.5-0.2-0.3 0-0.6 0-8.1 0-16.2 0c-2 0-2.7-0.7-2.7-2.7q0-5 0-10 0-2.3 0-4.5 0 0 0-0.1 0 0 0 0 0-0.1 0-0.1 0-0.1 0-0.1v-5.6q0 0 0-0.1 0-0.1 0-0.1 0-0.1 0-0.1 0-0.1 0-0.1c0-3.4 0-6.8 0-10.2q-0.1-0.4 0-0.8 0.1-0.4 0.3-0.7 0.2-0.3 0.4-0.6 0.3-0.3 0.6-0.5h38q0.2 0.2 0.5 0.4 0.2 0.2 0.3 0.4 0.2 0.3 0.3 0.6 0.1 0.3 0.1 0.6v9.5q0 0.6 0 1.3 0 0.1 0 0.2v8.7q0 6.2 0 12.4zm-10-12.7c0-1.4 0-1.4-1.5-1.4q-8.7 0-17.4 0-0.3 0-0.6 0c-0.6 0-0.9 0.2-0.9 0.8q0.1 0.3 0.1 0.6 0 0.3 0 0.6 0 0.2 0 0.5 0 0.3-0.1 0.6c0 0.9 0.4 1.2 1.2 1.1 3 0 6 0 9 0h7.3c2.9 0 2.9 0 2.9-2.8zm0-6.3q0-0.2 0-0.5-0.1-0.2-0.1-0.5 0-0.2 0.1-0.5 0-0.2 0-0.5c0.1-0.8-0.3-1.1-1.2-1.1-3 0-6 0-9 0h-7.3c-2.9 0-2.9 0-2.9 2.9 0.1 1.3 0.1 1.4 1.4 1.4q6.6 0 13.3 0c1.5 0 3-0.1 4.5 0 0.8 0 1.3-0.3 1.2-1.2z"/>
	<path id="Path_102" class="s0" d="m57.3 48.7c-1 0.1-2.2-0.5-2.9 0.2-0.7 0.7-0.2 1.9-0.2 2.9q-0.1 1.9 0 3.8h4.3q-0.1-2.9 0-5.8c0-0.9-0.3-1.2-1.2-1.1z"/>
	<path id="Path_103" class="s0" d="m46 46.8q0 4.4 0 8.8h4.3q0-4.3 0-8.6-0.1-1.2 0.4-2.4 0.4-1.1 1.2-2 0.9-0.9 2-1.4 1.1-0.4 2.3-0.4 0.9 0 1.8-0.2 0.9-0.2 1.7-0.6 0.9-0.4 1.6-0.9 0.7-0.5 1.3-1.2-0.6-0.2-1.1-0.4-0.5-0.3-1-0.5-0.5-0.3-1-0.6-0.5-0.3-1-0.7-0.3 0.2-0.6 0.3-0.3 0.2-0.6 0.3-0.3 0.1-0.7 0.1-0.3 0.1-0.7 0.1c-1.3 0-2.6 0.3-3.8 0.8-1.2 0.6-2.3 1.3-3.3 2.3-0.9 0.9-1.6 2.1-2.1 3.3-0.5 1.3-0.7 2.6-0.7 3.9z"/>
	<path id="Path_104" class="s0" d="m76.7 40.8q1.2 0 2.3 0.4 1.1 0.5 1.9 1.4 0.8 0.8 1.3 1.9 0.4 1.2 0.4 2.4 0 4.3 0 8.7h4.3q0-4.3 0-8.6 0-1.9-0.6-3.6-0.6-1.8-1.8-3.2-1.1-1.5-2.7-2.4-1.7-0.9-3.5-1.2c-0.8-0.2-1.7-0.2-2.6-0.3q-0.2-0.1-0.4-0.1-0.2-0.1-0.3-0.1-0.2-0.1-0.4-0.2-0.1-0.1-0.3-0.2-0.4 0.4-0.9 0.7-0.5 0.3-1 0.6-0.5 0.2-1 0.5-0.6 0.2-1.1 0.4 0.6 0.7 1.3 1.2 0.7 0.5 1.6 0.9 0.8 0.4 1.7 0.6 0.9 0.2 1.8 0.2z"/>
	<path id="Path_105" class="s0" d="m77.7 48.7q-0.3 0-0.6 0-0.2 0-0.5 0-0.3 0-0.6 0-0.2 0-0.5 0c-0.9-0.1-1.1 0.3-1.1 1.1 0 1.9 0 3.9 0 5.8h4.3q0-2.9 0-5.9c0-0.8-0.2-1.1-1-1z"/>
	<path id="Path_106" class="s0" d="m79.7 14.4q-0.1-0.2-0.2-0.5 0.1 0.3 0.2 0.5z"/>
	<path id="Path_107" class="s0" d="m53.4 13.9q-0.1 0.1-0.1 0.3 0-0.2 0.1-0.3z"/>
	<path id="Path_108" fill-rule="evenodd" class="s0" d="m78.7 21.4c0 8-5.5 14.4-12.3 14.4-6.7 0-12.2-6.4-12.2-14.4 0-8 5.5-14.4 12.2-14.4 6.8 0 12.3 6.4 12.3 14.4zm-21.8 0c0 6.4 4.3 11.7 9.5 11.7 5.3 0 9.5-5.3 9.5-11.7 0-6.4-4.2-11.7-9.5-11.7-5.2 0-9.5 5.3-9.5 11.7z"/>
	<path id="Path_109" class="s2" d="m90.7 62.5h-84.8q-0.4 0.1-0.9 0-0.8 0-0.8 0.8c0 3.2 0 6.3 0 9.4q0 0.3 0.2 0.6 0.1 0.3 0.3 0.5 0.3 0.3 0.6 0.4 0.3 0.1 0.6 0.1c0.4 0 0.9 0 1.3 0h58.7q12.2 0 24.3 0c1.7 0 2.2-0.6 2.3-2.2q0-3.9 0-7.7c0-1.9 0-1.9-1.8-1.9z"/>
	<path id="Path_110" class="s2" d="m55.2 86.7c-0.7 0-0.9-0.3-0.9-0.9q0-1.3 0-2.6c0-0.5 0.2-0.8 0.6-0.8 1.3 0.2 1.4-0.5 1.3-1.5 0-0.3 0-0.7 0-1.1 0-1.2 0-1.2-1.2-1.2-4 0-7.9 0-11.8 0-3.2 0-2.7-0.6-2.8 2.8 0 0.8 0.4 1 1.1 1 2 0 4 0 5.9 0 0.7 0 1 0.2 1 0.9 0 0.6 0 1.2 0 1.7 0 1.7 0 1.7-1.6 1.7q-0.9 0-1.8 0-0.8 0-1.7 0-0.9 0-1.8 0.1-0.8 0-1.7 0.1c-2.8 0.4-5.1 1.6-6.5 4.2-0.7 1.2-0.6 1.4 0.7 1.4q7.2 0 14.3 0 7.2 0 14.4 0c1.2 0 1.3-0.2 0.7-1.3q-0.4-0.7-0.9-1.3-0.5-0.6-1.1-1.1-0.6-0.5-1.3-0.9-0.7-0.4-1.5-0.6-0.4-0.1-0.9-0.2-0.4-0.1-0.8-0.2-0.4-0.1-0.9-0.1-0.4-0.1-0.8-0.1z"/>
	<path id="Path_111" class="s2" d="m48.4 12.8q0 0.1 0 0.2v-1.5q0 0.6 0 1.3z"/>
	<path id="Path_112" fill-rule="evenodd" class="s0" d="m96.6 18.7v55.3c-1.1 3.3-3.5 4.7-7 4.6-6.1-0.1-12.2 0-18.3 0q-4.9 0-9.8 0c-0.7 0-1.1 0.2-1 1q0 1.5 0 2.9-0.1 0.2 0 0.4 0 0.2 0.1 0.4 0.2 0.2 0.3 0.3 0.2 0.1 0.4 0.2 1.2 0.5 2.3 1.3 1.1 0.8 2 1.8 0.9 1 1.6 2.2 0.6 1.2 1 2.5 0 0.2 0.1 0.4 0.1 0.2 0.2 0.3 0.2 0.1 0.3 0.1 0.2 0.1 0.4 0.1c0.9-0.1 1.7 0 2.6 0 0.5 0 0.8 0.2 0.8 0.8q-0.1 1.7-0.1 3.4h-48.3q-0.1-1.7-0.1-3.3c0-0.7 0.3-1 0.9-0.9 0.6 0 1.3-0.1 2 0q0.2 0 0.5 0 0.3-0.1 0.6-0.2 0.2-0.2 0.3-0.5 0.2-0.2 0.2-0.5 0.3-1.1 0.7-2 0.5-1 1.1-1.8 0.7-0.9 1.5-1.6 0.8-0.7 1.8-1.1c2.3-1.1 2.7-2.6 2.5-4.8-0.2-1.4 0-1.4-1.5-1.4q-14.3 0-28.7 0-0.7 0-1.3-0.1-0.6-0.1-1.2-0.4-0.5-0.2-1-0.6-0.5-0.4-1-0.8-0.2-0.3-0.5-0.6-0.2-0.4-0.4-0.7-0.2-0.3-0.3-0.7-0.2-0.3-0.3-0.7v-55.3c1-2.5 2.2-3.9 4.2-4.4v6q0 0 0 0.1 0 0 0 0.1 0 0 0 0.1 0 0 0 0.1 0 18.1 0 36.3c0 1.2 0 1.3 1.3 1.3q9.8 0 19.7 0c6.5 0 64.8 0 65.9 0 1.3 0 1.3-0.1 1.3-1.4q0-9.1 0-18.2 0.1-9 0-18.1c0-1.7-0.7-2.4-2.4-2.4q-4.6 0-9.3 0 0-0.5-0.1-1-0.1-0.5-0.3-1-0.1-0.4-0.3-0.9-0.1-0.5-0.3-0.9-0.1-0.2-0.2-0.5 5.1 0 10.2 0c3.7 0 5.6 1.3 6.9 4.8zm-34.1 71.2q-0.5-0.6-1.1-1.1-0.6-0.5-1.3-0.9-0.7-0.4-1.5-0.6-0.4-0.1-0.9-0.2-0.4-0.1-0.8-0.2-0.4-0.1-0.9-0.1-0.4-0.1-0.8-0.1c-0.7 0-0.9-0.3-0.9-0.9 0-0.9 0-1.8 0-2.6 0-0.5 0.2-0.8 0.6-0.8 1.3 0.2 1.4-0.5 1.3-1.5 0-0.3 0-0.7 0-1.1 0-1.2 0-1.2-1.2-1.2-4 0-7.9 0-11.8 0-3.2 0-2.7-0.6-2.8 2.8 0 0.8 0.4 1 1.1 1 2 0 4 0 5.9 0 0.7 0 1 0.2 1 0.9 0 0.6 0 1.2 0 1.7 0 1.7 0 1.7-1.6 1.7q-0.9 0-1.8 0-0.8 0-1.7 0-0.9 0-1.8 0.1-0.8 0-1.7 0.1c-2.8 0.4-5.1 1.6-6.5 4.2-0.7 1.2-0.6 1.4 0.7 1.4q7.1 0 14.3 0 7.2 0 14.4 0c1.2-0.1 1.3-0.2 0.7-1.3q-0.4-0.7-0.9-1.3zm29.9-25.5c0-1.9 0-1.9-1.7-1.9h-84.8q-0.4 0-0.9 0-0.8 0-0.8 0.8c0 3.2 0 6.3 0 9.4q0 0.3 0.2 0.6 0.1 0.3 0.3 0.5 0.2 0.3 0.5 0.4 0.3 0.1 0.7 0.1c0.4 0 0.9 0 1.3 0h58.7q12.2 0 24.3 0c1.6 0 2.2-0.6 2.2-2.2q0.1-3.9 0-7.7z"/>
	<path id="Path_113" class="s0" d="m48.4 2.5q0-0.1 0-0.1 0-0.1 0-0.2 0 0 0-0.1 0-0.1 0-0.1v9.5c0-3 0-6 0-9z"/>
</svg>