<svg id="icon_2" data-name="icon 2" xmlns="http://www.w3.org/2000/svg" width="86.895" height="103.493" viewBox="0 0 86.895 103.493">
  <path id="Path_63" data-name="Path 63" d="M677.713,1979.755c0-9.435.058-18.87-.035-28.3a10.479,10.479,0,0,1,3.583-8.405c6.306-5.8,12.466-11.754,18.607-17.726a7.906,7.906,0,0,1,5.956-2.325c12.611.06,25.223.02,37.834.031,8.417.007,13.636,4.8,13.8,13.272.226,11.452.011,22.912.1,34.367.025,3.328-2.272,2.233-3.995,2.473-2.119.294-2.62-.679-2.609-2.62.061-11.167.037-22.334.023-33.5-.006-5.285-2.047-7.389-7.288-7.4-11.168-.033-22.336.06-33.5-.063-2.7-.03-3.649.9-3.384,3.518a45.108,45.108,0,0,1,.026,4.907c-.065,7.657-5.4,13.007-13.111,13.128-2.117.033-4.245.137-6.351-.024-2.425-.186-3.129.783-3.115,3.149.087,14.343.043,28.688.043,43.032,0,4.044-.038,8.088.014,12.13.059,4.466,2.306,6.775,6.776,6.795,12.034.054,2.286.315,14.3-.119,4.688-.17,6.553,2.911,9.18,5.385.718.676.312,1.229-.607,1.3-.766.058-1.539.044-2.309.045-13.863,0-5.934.007-19.8,0-8.887-.006-14.008-4.943-14.114-13.868C677.626,1999.2,677.715,1989.478,677.713,1979.755Z" transform="translate(-677.677 -1922.995)" fill="#196c52"/>
  <g id="Group_31" data-name="Group 31" transform="translate(-677.677 -1922.995)">
    <path id="Path_64" data-name="Path 64" d="M717.34,1965.682c-7.6,0-15.2-.019-22.8.012-2.26.009-4.2-.458-4.159-3.178.036-2.536,1.877-3.017,4.03-3.014q22.945.029,45.891,0c2.137,0,4,.411,4.006,3,0,2.7-1.894,3.2-4.165,3.192C732.541,1965.662,724.94,1965.682,717.34,1965.682Z" fill="#196c52"/>
    <path id="Path_65" data-name="Path 65" d="M728.1,1952.877c-4.038,0-8.076-.042-12.113.018-2.2.032-4-.592-4.06-3.019s1.642-3.19,3.888-3.181c8.267.036,16.535.025,24.8.01,2.082,0,3.684.619,3.723,3,.042,2.553-1.638,3.192-3.839,3.178C736.368,1952.857,732.234,1952.876,728.1,1952.877Z" fill="#196c52"/>
    <path id="Path_66" data-name="Path 66" d="M706.553,1978.482c-4.038,0-8.076-.041-12.113.018-2.2.032-4-.592-4.06-3.019s1.643-3.19,3.888-3.18c8.268.036,16.535.024,24.8.01,2.082,0,3.683.618,3.722,3,.042,2.553-1.637,3.192-3.839,3.178C714.821,1978.463,710.687,1978.481,706.553,1978.482Z" fill="#196c52"/>
  </g>
  <g id="Group_32" data-name="Group 32" transform="translate(-677.677 -1922.995)">
    <path id="Path_67" data-name="Path 67" d="M730.3,1986.782a1.165,1.165,0,0,0,1.338.959c3.287-.047,6.575-.02,9.863-.02,3.393,0,6.786-.007,10.179.007a.781.781,0,0,0,.882-.6c.562-1.677,1.1-3.367,1.768-5a2.328,2.328,0,0,0-2.295-3.218c-1.7.065-3.413.007-5.12.018a1.223,1.223,0,0,1-.905-.341,6.508,6.508,0,0,0-8.99-.042,1.371,1.371,0,0,1-1.015.385c-1.665-.015-3.333.053-4.994-.023a2.331,2.331,0,0,0-2.327,3.29Q729.566,1984.462,730.3,1986.782Z" fill="#4fae5e"/>
    <path id="Path_68" data-name="Path 68" d="M764.4,2012.259a27.406,27.406,0,0,0-3.216-9.571,47.917,47.917,0,0,0-9.618-12.343,1.485,1.485,0,0,0-1.1-.433q-8.957.015-17.912,0a1.527,1.527,0,0,0-1.149.455,52.638,52.638,0,0,0-5.2,5.66c-3.981,5.148-7.125,10.673-7.706,17.332a12.555,12.555,0,0,0,2.163,8.846,9.545,9.545,0,0,0,8.251,4.282c4.191-.079,8.384-.019,12.577-.019q6.625,0,13.251,0a5.928,5.928,0,0,0,1.174-.061,10.228,10.228,0,0,0,7.241-5.516A13.953,13.953,0,0,0,764.4,2012.259Zm-14.665-14.6a23.438,23.438,0,0,1-1.462,2.407H744.4a6.138,6.138,0,0,1,1.088,2.585h4.136q.072.018.072.072-1.392,2.353-1.427,2.371H745.6a7.755,7.755,0,0,1-1.017,2.925,6.808,6.808,0,0,1-2.389,2.246,8.46,8.46,0,0,1-4.03,1.141v.036a6.673,6.673,0,0,0,.945,1.409l7.168,9.824v.464a.063.063,0,0,1-.071.071h-3.156q-8.523-11.251-8.523-11.3v-2.283l.035-.089a10.915,10.915,0,0,0,1.766.125q4.761,0,5.937-3.513a3.2,3.2,0,0,0,.179-1.052h-8.63c-.048,0-.072-.029-.072-.089q1.426-2.354,1.462-2.354h6.865v-.035a4.244,4.244,0,0,0-2.282-2.1,6.4,6.4,0,0,0-2.176-.446h-3.833v-.089q1.391-2.353,1.426-2.354h14.532Z" fill="#4fae5e"/>
  </g>
</svg>
