<svg id="icon_3" data-name="icon 3" xmlns="http://www.w3.org/2000/svg" width="90.285" height="124.772" viewBox="0 0 90.285 124.772">
  <g id="Group_28" data-name="Group 28" transform="translate(-681.702 -2111.899)">
    <path id="Path_59" data-name="Path 59" d="M745.913,2203.275c0-3.756-.014-7.512.006-11.268.013-2.525,1.4-4.08,3.6-4.122,2.363-.046,3.942,1.542,3.975,4.139.048,3.7.029,7.409.007,11.113-.006.979-.092,1.684,1.363,1.226a3.365,3.365,0,0,1,3.861,1.249c.427.567.768.587,1.41.3a3.7,3.7,0,0,1,4.928,1.157c.365.436.6.746,1.239.4,2.379-1.3,5.578.048,5.649,3.836.052,2.778.04,5.557.012,8.335a65.777,65.777,0,0,1-.182,6.626,11.476,11.476,0,0,1-10.313,10.23,28.076,28.076,0,0,1-8.147-.233,10.841,10.841,0,0,1-6.864-4.636q-5.745-8.6-11.4-17.251A3.631,3.631,0,0,1,736,2209a3.673,3.673,0,0,1,5.36,1.139c1.076,1.569,2.076,3.191,3.154,4.759.292.424.431,1.271,1.111,1.053.539-.173.273-.917.275-1.4C745.921,2210.787,745.912,2207.031,745.913,2203.275Z" fill="#4fae5e"/>
    <path id="Path_60" data-name="Path 60" d="M749.749,2177.685a13.89,13.89,0,0,1,12.858,8.5,14.344,14.344,0,0,1-2.927,15.45c-1.184,1.232-2.362,1.007-3.635.58-.813-.273-.65-.969-.275-1.509a6.314,6.314,0,0,1,1.03-.922,10.753,10.753,0,0,0,2.806-12.246c-1.887-4.449-6.055-6.9-11.155-6.563a10.6,10.6,0,0,0-9.193,7.972,10.412,10.412,0,0,0,3.372,10.891c.485.432,1.222.723,1.265,1.477.051.907.472,2.131-.22,2.646-.734.545-1.574-.44-2.254-.927a13.978,13.978,0,0,1,8.328-25.346Z" fill="#4fae5e"/>
  </g>
  <g id="Group_29" data-name="Group 29" transform="translate(-681.702 -2111.899)">
    <path id="Path_61" data-name="Path 61" d="M715.669,2156.253c.115,0,.231,0,.349,0,6.848-.1,11.81-3.323,14.741-9.568,2.051-4.369,2.476-9.112,2.71-13.224a17,17,0,0,0-.289-4.736c-.091-.565-.182-1.126-.242-1.687-.962-8.685-7.2-14.611-15.876-15.1-8.776-.474-15.624,3.99-17.8,11.706a33.037,33.037,0,0,0,1.551,23.316C703.6,2153.042,708.732,2156.253,715.669,2156.253Zm-13.418-31.77c1.69-6,6.688-9.483,13.479-9.483q.569,0,1.156.034c7.2.409,12.165,5.137,12.963,12.341.066.612.163,1.222.261,1.835a14.243,14.243,0,0,1,.27,3.924l-.009.1c-.228,4.008-.6,8.244-2.422,12.125-2.421,5.153-6.339,7.7-11.98,7.783-5.741.167-10.016-2.424-12.334-7.479A30,30,0,0,1,702.251,2124.483Z" fill="#196c52"/>
    <path id="Path_62" data-name="Path 62" d="M745.988,2173.306a22.53,22.53,0,0,0-20.175-12.383,1.9,1.9,0,0,0-1.611.886l-3.362,5.317-4.579-7.441a1.8,1.8,0,0,0-1.375-.741,1.557,1.557,0,0,0-1.323.832l-4.162,7.93-3.439-5.846a1.9,1.9,0,0,0-1.642-.937,22.645,22.645,0,0,0-22.618,22.621V2199.6a1.9,1.9,0,0,0,1.906,1.9h47.406a1.905,1.905,0,0,0,0-3.811h-45.5v-14.149a18.834,18.834,0,0,1,17.736-18.78l9.789,16.641a1.9,1.9,0,0,0,1.611.937,1.953,1.953,0,0,0,1.642-.886l10.554-16.7a18.731,18.731,0,0,1,15.745,10.274,1.906,1.906,0,1,0,3.4-1.729Zm-31.251,3.471-3.483-5.921,3.79-7.221,3.948,6.414Z" fill="#196c52"/>
  </g>
</svg>
