<svg id="Icon_3" data-name="Icon 3" xmlns="http://www.w3.org/2000/svg" width="84.967" height="96.481" viewBox="0 0 84.967 96.481">
  <path id="Path_85" data-name="Path 85" d="M671.108,2092.48c0-8.019.05-16.038-.03-24.056a8.913,8.913,0,0,1,3.045-7.145c5.361-4.926,10.6-9.99,15.816-15.066a6.719,6.719,0,0,1,5.062-1.976c10.719.051,21.438.017,32.158.026,7.153.006,11.59,4.078,11.732,11.281.191,9.733.009,19.474.081,29.211.021,2.828-1.931,1.9-3.395,2.1-1.8.25-2.227-.576-2.218-2.226.052-9.492.031-18.984.02-28.476-.005-4.492-1.74-6.28-6.2-6.293-9.492-.028-18.985.051-28.475-.053-2.3-.026-3.1.767-2.876,2.99a38.4,38.4,0,0,1,.022,4.17c-.055,6.508-4.592,11.056-11.144,11.159-1.8.028-3.609.116-5.4-.021-2.061-.158-2.66.666-2.648,2.676.074,12.192.036,24.384.037,36.576,0,3.437-.033,6.874.012,10.31.049,3.8,1.959,5.758,5.759,5.775,10.228.046,1.943.269,12.158-.1,3.984-.144,5.569,2.475,7.8,4.578.61.574.265,1.044-.517,1.1-.651.05-1.308.038-1.962.038-11.783,0-5.044.007-16.827,0-7.553-.005-11.906-4.2-12-11.788C671.035,2109.01,671.11,2100.745,671.108,2092.48Z" transform="translate(-671.077 -2044.237)" fill="#206346"/>
  <g id="Group_58" data-name="Group 58" transform="translate(-671.077 -2044.237)">
    <path id="Path_86" data-name="Path 86" d="M704.789,2080.519c-6.46,0-12.92-.016-19.38.01-1.921.008-3.568-.389-3.535-2.7.03-2.155,1.595-2.564,3.425-2.562q19.5.025,39.006,0c1.816,0,3.4.35,3.4,2.55,0,2.3-1.61,2.721-3.54,2.713C717.709,2080.5,711.249,2080.519,704.789,2080.519Z" fill="#206346"/>
    <path id="Path_87" data-name="Path 87" d="M713.935,2069.635c-3.431,0-6.864-.035-10.295.015-1.866.028-3.4-.5-3.451-2.566s1.4-2.711,3.3-2.7c7.027.031,14.054.021,21.081.009,1.77,0,3.131.525,3.164,2.55.035,2.169-1.392,2.713-3.263,2.7C720.962,2069.619,717.449,2069.634,713.935,2069.635Z" fill="#206346"/>
    <path id="Path_88" data-name="Path 88" d="M695.621,2091.4c-3.432,0-6.864-.036-10.295.015-1.867.027-3.4-.5-3.451-2.566s1.4-2.711,3.3-2.7c7.027.03,14.054.02,21.081.008,1.77,0,3.131.526,3.164,2.55.036,2.17-1.391,2.713-3.263,2.7C702.648,2091.382,699.134,2091.4,695.621,2091.4Z" fill="#206346"/>
  </g>
  <g id="Group_59" data-name="Group 59" transform="translate(-671.077 -2044.237)">
    <path id="Path_89" data-name="Path 89" d="M749.93,2121.715l6.114-10.882-3.668.043a23.943,23.943,0,1,0-6.279,22.834,2.608,2.608,0,1,0-3.688-3.689,18.768,18.768,0,1,1,4.56-19.081l-3.408.04Z" fill="#51b254"/>
    <path id="Path_90" data-name="Path 90" d="M728.937,2103.3a13.528,13.528,0,1,0,13.528,13.528A13.528,13.528,0,0,0,728.937,2103.3Zm5.525,6.748a15.723,15.723,0,0,1-.964,1.587h-2.551a4.03,4.03,0,0,1,.717,1.7h2.727c.032.008.047.024.047.047q-.916,1.553-.94,1.564h-1.763a5.1,5.1,0,0,1-.67,1.927,4.486,4.486,0,0,1-1.575,1.482,5.584,5.584,0,0,1-2.657.752v.023a4.39,4.39,0,0,0,.623.929l4.726,6.477v.305a.041.041,0,0,1-.047.047h-2.081q-5.619-7.416-5.619-7.452v-1.505l.024-.058a7.283,7.283,0,0,0,1.164.082q3.138,0,3.914-2.316a2.119,2.119,0,0,0,.117-.693h-5.689c-.031,0-.047-.02-.047-.059q.94-1.551.964-1.552h4.526v-.023a2.8,2.8,0,0,0-1.505-1.387,4.212,4.212,0,0,0-1.434-.294h-2.527v-.059q.916-1.551.94-1.551h9.58Z" fill="#51b254"/>
  </g>
</svg>
